<mxfile host="app.diagrams.net" modified="2023-02-08T05:42:06.323Z" agent="5.0 (Windows NT 10.0; Win64; x64) AppleWebKit/537.36 (KHTML, like Gecko) Chrome/109.0.0.0 Safari/537.36" etag="gPFm8hDwRnCE3kA1Oc9m" version="20.8.13" type="github">
  <diagram name="ページ1" id="2q4AzUijY41JmGCiPpdk">
    <mxGraphModel dx="1593" dy="1981" grid="1" gridSize="10" guides="1" tooltips="1" connect="1" arrows="1" fold="1" page="1" pageScale="1" pageWidth="827" pageHeight="1169" math="0" shadow="0">
      <root>
        <mxCell id="0" />
        <mxCell id="1" parent="0" />
        <mxCell id="LmEIZnUeqxn2UF4arfpl-2" value="" style="shape=image;verticalLabelPosition=bottom;labelBackgroundColor=default;verticalAlign=top;aspect=fixed;imageAspect=0;image=data:image/png,iVBORw0KGgoAAAANSUhEUgAAAuEAAAHyCAMAAAByNOAIAAAAAXNSR0IArs4c6QAAAARnQU1BAACxjwv8YQUAAAFKUExURQAAAAAAACAgIAAAACAgIN9QIAAAACsrK+pKIAAAACgoKAAAACYmJuZGIAAAACUlJQAAACQkJAAAACgoKAAAACcnJ+ZHIwAAACYmJgAAACYmJgAAACUlJQAAACUlJQAAACcnJwAAACYmJgAAACYmJgAAACYmJgAAACUlJQAAACcnJ+dJIwAAACYmJudIIwAAACYmJudIIwAAACYmJgAAACYmJgAAACcnJ+dIIwAAACYmJgAAACYmJgAAACYmJuZIJAAAACYmJuZIIwAAACYmJuZIIwAAACYmJuZJIwAAACYmJuZIIwAAAAgICA8PDxcXFx4eHiYmJi4uLjU1NT09PURERExMTFRUVFtbW2NjY2pqanJycnl5eYCAgIiIiI+Pj5eXl56enqampq6urrW1tb29vcTExMzMzNTU1Nvb2+Pj4+ZII+rq6vLy8meupHIAAABMdFJOUwAICBAQEBgYGCAgKCgoMDA4OEBASEhIUFBYWGBgaGhwcHh4gICHh4+Pl5eXn5+fp6enr6+3t7+/v8fHz8/X19ff39/n5+fv7+/39/c6VTjwAAAACXBIWXMAABcRAAAXEQHKJvM/AABOuElEQVR4Xu29/1vczJW3CSFLlpD1eDpkiUMcwnQ8xLNknfU4Pa9DnJcMWbI8qwaD8RcwtrGNMbDw//+6n3PqVKkk1WkaUBN197mv63lcfbpaLalulU6VpGaiwv/yf/z3/2cYI8F//1//q2gd8X/Km4YxAvwP0Tri/5G3DGMUEK0j5A3DGAlE6wh5wzBGAtE6QgkbxrChqKyEDWPYUFRWwoYxbCgqK2HDGDYUlZWwYQwbispK2DCGDUVlJWwYw4aishI2jGFDUVkJG8awoaishA1j2FBUVsKGMWwoKithwxg2FJWVsNFEsjFHdoOCorISNpqINPTYIrtBQVFZCRtNRBp6bJHdoKCorISNJoJGvhxbzPAxwAzvhaKyEjaaiBneC0VlJWw0ETO8F4rKSthoIqNh+OneqZTKHB5KIYUZPgaMhOHnO9kXKZa4eJV9kGICM3wMGAXDz3ezAylWONvOjqRYxQwfA1KGnx0HvkuoyUDw3QspVznOss9SrGCGjwEpw48QzNl7cyzxmvjCi30pr/rjw16BQpf9NutGB+LZO1pneUF8zLraBqCm7AYFRWUlbDQRNLI0d07RcLBXq+O7vMyC4RffpKBB2kbEBn/Oso9SBEdb5ffxfTtKF4+ashsUFJWVsNFE0MjS3DkVw7Meuey1cV14ZPjXg90re/Q99yFPZDAS7W0v8MWRO3qKhuMLldEmaspuUFBUVsJGE0EjS3PnsOFbLh/gLjEr5AG3BBLuYIm50y8Lr9Lohr/Nu/BDWdmS4fjG7pkUi6Cm7AYFRWUlbDQRNLI0dw4b7iU53adX2Y68vDXoUbe/YoHXNzyZKn3D4nwX/oZWlCkajq98I8UiqCm7QUFRWQkbTQSNLM2dUzAcXSO9zNK94PVBF35Aicr1DH+FOidSLnAQZeEfUOnVFzoYioZfbisfRk3ZDQqKykrYaCJoZGnunJLhF3zy/yqvbskxFvWdvuB6hlOd1GXLC8gbjr2vPCROGI5x6nspFkBN2Q0KispK2GgiaGRp7pyS4dyBxvMVtwGZxB5/QT2G42yQf/Sc85iE4fi+5BegpuwGBUVlJWw0ETSyNHdO2XAM5rLM399x/nEPA8Wt4iz5xdEexNrd+3guAZCKXZ5gSV9iww8PeXy4hX8P/RK/Hb7Zybp7h5HSZHi8HA8OmHdS9CQMP0UolaYgLLtBQVFZCRtNBI0szZ1TNpymPnwfftClF8xekOYzcgVHN8zLpWJsJNSmzF4Md1Uc7iC6eC8vkVqEeWz6VikWQLw8kZkwnJL/1B1YqCm7QUFRWQkbTSRlTslw6gGp5yUKV178hZTP8poRk1Ix14XjUOll+CkfT8JrrzjK3cvzL+/33n6Mzx1niJfnMVOGI5aaTUFN2Q0KispK2GgiaGRp7pyi4RechnfZtY9UzPa/HH+gtCHb5wrfqYPtvvn01c0r8qGQigF04bSgXobzlN/Ou8M3fA54y5W42stzuZyzm2cvdMSU0/OU4TgwyyECNWU3KCgqK2GjiaCRpblzYsO/fXTZhrsThL3mTvSMwlscZO05Y6FZwGxXizkhaUGR4aAw0uTq3HWf8pdJJoTSFr8mtkI3TrWlGEgZfhB/Xw5qym5QUFRWwkYTSSjiDC/ykrvwExoUvuY6l5wt80QdDURfcYw64B1OnlMx14XTR3TDL+iFXML5jqIkFy5RCnT9COATXkgxkDIcX+iOxiKoKbtBQVFZCRtNJKFIwvBdP+f87f0ryTi4EnemlFeIlN8+Sc6QioUuvIfhnL77Owc5PeI02xm+j7U45p7cJ9VYUKVvThlOKyvFGERlNygoKitho4mkmr5s+G7qvqvccO7N34brLkwqFrrwHobz5/yNhpzq8Hez4W5a8JQnc6QTT/XNKcNTfT1AVHaDgqKyEjaaSKrpI8N3994dlq9mnnw+fLtHk+Ji+Deu2X37ORI6FaMu3HW+uuHU92eu76drlICHn+dv8runkFOH2ZlU36xkKZW+HqCm7AYFRWUlbDSRhCLO8LIkwukBpwmCG/LxFSFi52MQOhEje13fqxtO0yWhV6ZDIr+g4xfD6blE6RjoZy4FR0Vqe1BTdoOCorISNpoIGlmaO6eH4R84Rwg4wy+4W3Xsy5XHaizvwnsYTosPtzFyblJZjwuKyiiWlulHnZ6U4e/yeccY1JTdoKCorISNJoJGlubO0Q13F3x29g+/HHOS7AxHUrIfbs3e9ll0OUYz4zvupnNyuot/XX4fG061g/tsuEzdRNA8pdShKz5+HTwpw1+nb71CTdkNCorKSthoImhkae4c1XBOjHecUlwpsuvLvqQv4XbtUqxwOdThsunYcHZfyi6ZLzySydCBIxPsdENB+ZawlOH4yCcpxqCm7AYFRWUlbDQRNLI0d45qOE3fbUs+XDYcnOxzDlOYecljfRmOzja/xYqv/lTuaeQsxecc76srmjAcyUzyKR/UlN2goKishI0mgkaW5s5RDafe0/epCcOlky/1uj4WPS7PPTX+rWYpfJHfL5XSdX9f+vGBTJ+4nt3fzIUX7n6CnIThyKiqyQ5ATdkNCorKSthoImhkae4czXDKev08nett3S+RnH8KtxnSMcDzHKlYoDrS9PMn3G37yjwhSVMlF++wDF+FzwXhJ1CQlJd+7iphONY1+ZspqCm7QUFRWQkbTQSNLM2do/bhlHCIfnQNxSUkJzQL6O7BurygGsgrUrGIouF86dKPT2m6sOsmALnzd7MvZK0cW19pcdvhXvGD8D2equGUpJQ6egdqym5QUFRWwkYTQSNLc+eohrOLlDZc0CORgMSlB8m8wpxXQNZULKJoOE+d+1lG7sRfkuKssswF8hp1319cnh9xNO+28U0hxT6mxygOOenhkj8M8AXV8SqBmrIbFBSVlbDRRNDI0tw5quGu497d24PAlHu4bpXnDbNXUIrTilfUXaZiOUXD+RCgvJyHj3wU4TtI1JBvX3AnHojntj/n+roF5ci1oLNu1OcXQB3ZDQqKykrYaCJoZGnuHNVwziEcWzxZ7RIHvpnE89LJlIoFioaf8cHiQ/4ucCZMYheirwrzInuhE1cMRyKj/HIh6shuUFBUVsJGE0EjS3Pn6Iaf+ym/12c8DpSk/Mh1uKD7ztuXinmKhl9+5ZzGT3LnT7HtRLnNefi5n61iTn950vWZeNrw793k9UwCdWQ3KCgqK2GjiaCRpblz+LdnyxfDhS+Hr/f2DujNk/inaT8f0CzgwYfY5VTMcYqPxpn5+Yd91HzjJ9JPP+LV68MvxdTm/CMt7/1RZXE4IF1eTouN4c9f7IQp/Apm+BiQMnzY+ICcSYpV3mVbysFqho8Fo2A40pPSUDbncw/BzfBxYCQMx2CycKtAxMsegpvh48BoGH6pCX550kNwM3wcGBHDb4YZPgaY4b1QVFbCEfceTUnJs9SelVKVhU5nQYpG3ZjhvVBUVsI5j7LsmRSFmc0sm5ey0JqTwkQ7y9pSnFh4OC0loxbM8F4oKivhnKm1LHskZcfTLOtIUVjNNr3LkeGT61lm/XmdmOG9UFRWwhH30WW3pEzcy7LNUpYCrZ/mRW/4YpatT0rZqAMzvBeKyko4BtK+iExdzbIlKXqot5a8JTL8RZY9lKJRC2Z4LxSVlXDM5Fq2GfJs6pmfSzFnPnTXueGIrbqSURNmeC8UlZUwsdwR1rJVKQHkLC+kGGXjnSxb5EIwfBJdeH5cGHWARh5rZDcoKCorYQLWXoFUBHPoxLkQDF/KsidcMGpDdvvYIrtBQVFZCRPXMZySbs7EveHTm9mGzRXWjOz2sUV2g4KishK+NkjPOWnxhj+1YeaocaVi/2QUlZXwtZlcXeChpjd85pGfPzRGhPEyfKbdjufIc0Iebowao2j4nMyZOPj65P3WPfqnFYkM23OQvHekyLgZFmMEGEXDF7BROaz0mku3Y8NR1lmTSsbQg9aUUjNRVFbCDhju575XzfBxB60ppWaiqKyEHTDc3zrllU4YPtWKWMmyFSky96WSMfSMr+EFbKQ5spjhjBk+soyo4U9lTgTZhxk+3oyo4RFm+HgDBaTUTBSVlbADhvcxl1LADB9ZRtTwK/PwBUljhPIVH+DqGcPOuBp+rTsQjSGm6U2pqKyEHWa4kdP0plRUVsIOGH7lXMo9ubQjlK/4AFfPGHZG1PCItOElbKQ5skABKTUTRWUl7IDhNpdiCCNquF3TNIQxMVwww8cPM5wxw0cWM5wxw0eW8TJ8zgwfO0bY8KU2X40X2Z/Q1Mpalj1wL0uY4SPLCBu+jG3Lso0ZF1ziV9m6vCxhho8saHQpNRNFZSXsmOt06KcH71OvvczP2IMZ0rvTTgtuho8uo2i4YeSY4cZoY4Ybo40Zbow2Zrgx2pjhxmhjhhujjRlujDZmuDHamOHGaGOGG6ONGW6MNma4MdqY4cZoY4YbgwaOjTWyGxQUlZWw0USkoccW2Q0KispK2Ggi0tBji+wGBUVlJWw0ETTy5dhiho8BZngvFJWVsNFEzPBeKCorYaOJjIjh5/JvhYsLKaQww8eA0TD869ZXKZW4eP26h+Jm+BgwEoafbHW/S7HMfvZWSgnM8DFgFAw/2cqOpFjh4lW2L8UqZvgYkDL85DDw6fhYgk3g9Pjo03Glt/6+VeinL46Pj0+kDE63skMpVjDDx4CU4UcIRmwdquO46/FOFijsSbhfvu65z736LAHhVfYyWsGvO6VFH2dqD4+ashsUFJWVsNFE0MjS3Dklw8nxXjMSffNWFifkGp5//SglnYt9+Rgo5B0fsuyLFC8vz9xRVDh43mTbZ1IsgZqyGxQUlZWw0UTQyNLcORXDs+xA3roV0gd7vIaHu1n2Uso6B/Ip5r0EwfdutivFy2/vuu79guEnpUMiBzVlNygoKlfCU+6vC4K5lvLrmzfiAZZ4reUturVw+J8x74u6N+HmawKmFjsvss3O4rS8vg1oZGnuHDb8pUvE37ykF3E3eXPI8N29gD9q6BuuNPwzrcTW/uej11TI8kT7Vb5ub/gtomA4xaPEPAI1ZTcoVFR2VML007KB9aU6Goa4T4u71p/WXOM1EPjPY/VL3Ztw8zWZmGhvyOfW6Vd8bwkWI82dw4YHSY64X9ySV7eBDE8MXPsx/GIblbrfqIgeP3sdFvMVB40UXZ7f3cL/ioajEw91CqCm7AaFisqOSrigR5ZtLkn8dky+oIUFw+eybEWKKpv8/cLNDa9hE5Jr0s8mTEyuyKeIRxK8OViINHdO0XBJWrQJ52tAbiYW04/hH2kVPnHxy8vDUy4wyO3D6QWVugdndBwVDadvSF4RQk3ZDQoVlR2VMOnxqNVqPWy3O9y06b/1cE3atKTc8IU+9ED9FckMrpkb1L0JyTXpZxMmnuCjqwszE1Pzz7PsoQRvDpYmzZ1TMvySesU60hRSOZLT04/hpO22lGMucIIJEynf4LerWjIcg9R3UiyAmrIbFCoqOyph0sO34tQCzrGb9+XVLbi3ma2vR4YvXq3HNNZjVsrXpOZNSK9JH5swMY9PPp1y5UfL7t/bgMVJc+eUDefU94O8AGeFCWfP8XF1UrEYu4bhZ8eckXhI5ORwEauaJyAXPGWSMPwLsqzUbBBqym5QqKjsqIRjPfhc3EdXdSXowRaRzQbD0aVftVRajz4z6OknxS6+5k1Ir0kfmzC5mmVPpFwLWBFp7pyy4TyC85dNvsp4rjBLfiJT3W+iZKAaI5XLomHESfZ2aejpp60/7PFZYy+f90a2nUzhSefyNE/C8HPl0wjLblCoqOyohIt60Hl2VYo3ZwkLmYz7cKSnV+nRunKLPFPopQuK17wJ6TXpYxOQyGzWNVJnsCLS3Dllw2mUJ0nwOeXSwlYwMJqqDjc6JWJUdqUcriC4g+j7K3mZZa98j89peGpSG+Fy+pQwnEYAqflO1JTdoFBR2VEJl/TAyTibdMXJ1tKTzvJC4YTdaj/prCwGc0E1MjGDZHiemkei91vPsuwZEuVWSxY9cb/9rNNpz8srAl6tS/Eq0EtvxjMVNW9Cak362gQcWo+lWA/YEGnunJLh3+il6wNjwaG4CFiYqhadUzGUti5PDl5l22/CYNFVcLDhxzKlzbyUany40Glhr7v3PlL6FOFy3pMyHHnWaynGoKbsBoWKyo5KuKQHneM5i53HKZfZXOQ3iBayD2bNN2w1Ajo8A4GgkyaefHPT1fcTn0IH+EKKVwKHY8Vr3oTEmvS1CZM4txSO9FuDxUtz5xQNP6XkQoZ57O325/PLb5yrOGuOqbj78fvFZ+7s+fJkKkZCvfzGCQhUF0/LWcoFH0NvPh1/4IIk2WTt9uV7ioDX+dgSr8pde8pwJEyvpBiDmrIbFCoqOyrhkh4P8RJn2iAH4c/O96NpNBerRgAWsQkNEFIMfxh9KozH8Kn+pwiXs2zD/6242jchsSZ9bQL6/k0p1gQWLs2dw4bvHjOfJZvmJOWC9OyyUmxil0qXhyH4nWTdpg47FbugWN5Dh6FrYaTJ+Qh35hc8wHUHAlXZyU8Lu77fputAUgykDMexkZqtQU3ZDQoVlR2VcEkPuEOn6EeIdtpz061FuoLhZJpEO68vTE3MzD+T2YpqBEzjEzRRhs85wxfbdBlklefeaKIBfWS2+fjB7PwyLdv7wSO5ew/bS31dlsT6bYQ5wZo3IbEmfW0CPnf7IUwBLFuaO4cNL+J66+9vIKjMu32gMM9uU3cuPeR+9nKfB5apGKUUYGePHAQ+24gNP6MjYMeVz6nsOnGqQkfXyz0+JWRvOOpmwKUYSBmOla3UA6gpu0GhorKjEi7qQVdqntK/6x3pI++hDSni5sJE4zk311uNgKfSBeK9cM6GRqGLn0X3t+HemUEcGTsDIVf5MhHy3T5mDamjXpaUuOZNSK/J1ZuAzz3BOPhhZ/35SruWEScWLc2dUzU8H6Z9fS8ThVyJk3O6oWrL5Qpn/oJOKsaGd2l4es6O+2m+2PBP9Ibv3bkT56+gKqhEB8pXPgvIMnGqqPTNKcNpZaUYg6jsBoWKyo5KuKjHY7zipDXvSOkvJLNK1T4q1Ws9cDmKbjiydO/UxNQ6elDnaXw1UK5KtrjPVKA8+LnzqOZNSKwJuHoT8LnliRZ16mAjOqncGCxHmjunZHj3oDyYI3LDKSPJdqN5QpCKseHOXr4I7zvx2HDORPwhwbpzesSGy7CT8xg55FJ9c8rwVF8PUFN2g0JFZUclHOvRQv9byUFp4MZdGWTY4EigGpmYRoO7vhAfSxlO3+c6VAJLkB6QlrU8N3N/4RlC7pP0Zm9cR1rzJiTWBFy9CfjmNsbAGx13YfX2F+11w7do7Ld3cHhUvpBz+nFfcgUxnDML5Nr7n12nTaRiFx8P9nZl4pA1lTsEY8O525ayG65yJTZcjhdOXiSRoTWVJQZShuOAk08UQE3ZDQoVlR2VMDcXdYpPOzw0W5NrcgGqwBMXsyiEXISpRqgjE7/wXspwEiIfJE5DBrlIMrck37yA2Br1ilS1Ny/Y25o3IbEm4OpNQM++nm0u0mfvo3YNU+P4HmnuHDa8LInwuTBfyIa7lJx5E6bIU7EI7s/lyZzYcHp8IdzkdRIqUZUwGUIKS49Mx0A/s4X76e1BTdkNChWVHZUwtX7ESnGcd2++TfdauB6SktMnwVqiEqGpalkC3koZjp4unnFAsrEmxQAZRNnBDM8/K9BqPXEm1rsJMX5NwNWbQLnLmphPuUvezd8ULFCaO0c3/Iz72Bxn+OUXGgU6dvzV9lQsguKSiMeGUzhk1nwY8HqQ+KET5gcp3InlO0rlhacMf5e+MQU1ZTcoVFR2VMKxHusFOWYWn/HpFjg9Znn8tbogvRooR+hCpu8R8UbKcPSy8WwzySfFAC3lqqvflFr7We5aN6FAtCZXbwIM3wxde3TZ6eZgGdLcObrhfLlxa//z8amrJIZfXhyRVw538TMdy4m0jg2nDKRoOE+b0NRMuPGK5y9dz02X44vJftpwrHfqYU3UlN2gUFHZUQmTHnRjXqtVnMFoUZcEVikblSx3ihoTFj0KaUApglFeyIERThke5jUcNKdX7HMBOsne826T+Np1P9ardxOK5Gty9SZgOfndVpMIFtfmBmAZ0tw5quGcerx13WfBcHD2WR6wcdPgTComUFzyjnKWksjDeQDKMcCGS/YNncvqJgynG7dSuRJqym5QqKjsqIRJD2n9iEmakcieL8CiQoXZx9wn+pMxiCOU1JZwKYiuB+UBFcPhTO9rJxBvLf9UnZtQIl+TqzcB3xeF0fuHq503BQuW5s5RDacc3I8Vy4aDiyOSVS5gCqkYoM7X3ywYG86XSv3hwM/1cPfPX+anWEhhn7LgmMvvLXQkDMehcpf3FnooCXjq+qBShSl+imUzar08QvcslagYjqQg7p9pak6KOXJVUgVrF13SrHUTSuRrcvUmoG6UvCA7z+8VuCFYsDR3jmo4dbz+EcmC4V4fzitE3Grs5HDX3x3yhYKifWw4d9b+UhBfpeevOKOS76ypvl8OLbx0fkgYfniX94cH7iHo27NSYXIJEZnFdvjIvU4EQqudjstiIz2QMcTTcxChesMV5OzVh9NtKXF/W+cmlMjX5OpNoAf38gXgMCjP0VwbLFCaO0czPPbM3T/i7nf98rbrk2GaRmSbq7ELykC6MvUYXZFnY7tyPPD0ib9iSR+UD9C3Sb/NuUu4BIWFln4rImE4Pl082wioKbtBoaKyoxJO6kEnZ99YiQo0jCo+hliNaHk4Za25nnS30jMp58CZHndhTa0Vby0c3CbEa3L1Jkwi18nPAqgTBgo3BcuQ5s5R+3CaHpG4u12F5OJ7qfacoZx8IJiKuTkQ15fyBSE//UdKhvEipSldd9mUL/iIyvn8+QVVz3/EDZX8ASFUDccJI/V80KANR54bvEtUoLYsnoKrkYLh6ND95Ajl6l4Vp1XlmTO6+7bXbaiT7aKJA9uEeE362AQMNZ9zAVCHnhq6XgssQ5o7RzWce973EPdEZg05z+De/C3lCm4ykfxMxfgxhuz18dlXPjzEYzlY/P2C3InTjYfnLPWWpCDuIuj+l1P3s0DR6BLf5Bd0xBep6OByl6t8+oKjpjwOcKCm7AaFisqOSjipR9xWD3yFyXAKJhmoUauRCHwsGA7dwvLQLfopc56N2+CFrDwJy6LaUR95NfVugrImV28C3+Pi1xvVe08H9QOWJ82doxrOCQLGdjwRQiU2zZlLUnGBk5RUrHjPeG4p99VYYJeTcXlygsen0VTgNzcp49jxOT7AIeE7cT4zRMi1IPVR+wEbjn5JmtA9Pc4VVtZ810nG0NvVSAQiwXCa1vBDR7pddc2NAKegilv2AoSQz0/SEDHI1A+1boK2JlduAkCCLmG6T6B4orkJWIg0d45quOQmxCt+dNINO93NUIKMAVOx6OPuVODgBJ1ww83o4aDtaK77c77AVyFHIVBfOnHF8Df56aIE6shuUKio7KiEk3rQMO0FcsrJBQyY0JxUge4YffKAGv8hMk+a9q5GYvBmMJzO2avo3uapMs2ubSy1Ju7To5wywcaxlbnZiXsP6QrM+rWueNe6CdqaXLkJYBbL2HgwPTFNmctV16z6AEuR5s7RDb88ohwAnfMHl4jIDMX3oO5uGPalYpfHrkuHpLFzp5LzSGL+Vfrv7J1kLg7/dFs3eiaaONv265o2HFl4lNQUQB3ZDQoVlR2VcFIPnmpzrM/hhEsVZt31kw1qU9fw1UgMYsFwugzIcKJLfnh8SkCPyAfWr5Oj1L0J2ppcuQmghUMJ/Tj9T+57vBVYjDR3f5wefzg89NN5OWdf6AeyvhSuoKdilycU/Fq+l+TbZ0Q/Buvpx28/VB/dP8VXf6xOipz0+HVZfGgL5xspl8HGy25QqKjsqITTeoSftlmZIlVchXmknI4n1JElIzkI5oZPO5Oku5uj3pFYz7952l12IfwPMvRLzZugrMnVmwBmKWkhHuXa3xwsR5p7eEFGlJwMJC5eZbuVQ8WDjZfdoFBR2VEJT7ZarVR3c3+50+m0KaucySvcf/i401lpR11sNeLBcmNTF1Gvs+Qn0Obo1UpRy8kFCnYeVY6Vq6h9E5Q1uXoTQGul03mymNgfN2AUDIfi2q/LInPRBa/PcKO5jIThl5/DddAyuz0EN8PHgdEw/LKc2AfOewhuho8DI2L4zTDDxwAzvBeKykrYaCJmeC8UlZWw0UTM8F4oKitho4mY4b1QVFbCRhMxw3uhqKyEjSZihvdCUVkJG00EjTzWyG5QUFRWwkYTkYYeW2Q3KCgqK2GjiUhDjy2yGxQUlZWwYQwbispK2DCGDUVlJWwYw4aishI2jGFDUVkJG8awoaishA1j2FBUVsKGMWwoKithwxg2FJWVsGEMG4rKStgwhg1FZSVsGMOGorISNoxhQ1FZCRvGsKGorIQNY9hQVFbChjFsKCorYcMYNhSVlbBhDBuKykrYqJFf/te//+4XUjYGhqKyEjZq5N93wF9/8yN5aQwGRWUlbNTIH8nwnZ1//Ju8NgaCorISNmrkz87wnZ0//0wixgBQVFbCRo38TQTf2fnhtxIy6kdRWQkbNSJ6M7+TmFE7ispK2KiPn4rcjv+QqFE3ispK2KiPn4vbwh8kbNSMorISNurj16K2x6ZUBoOishI26uOnP//1f4rcjp/LG0atKCorYaNefvonsZv4x08latSJorISNurm1z+I3+DPdnlzACgqK2Gjdn7xD/Eb2LT4AFBUVsJG/fxLrvgPP5GYUR+KykrYGADRtOEfJWTUh6KyEjYGwe/Eb2B309aOorISNgZCPqPyF4kYtaGorISNgfCTfELllxIy6kJRWQkbg+G34rd14vWjqKyEjcHwo7+I4NaJ146ishI2BsQvxW/rxGtHUVkJG4Mi78RtOqVeFJWVsDEo8k78PyVi1IOishI2BkbeiduFzVpRVFbCxsD4hfi9s/N7iRi1oKishI3BETrxv9sthnWiqKyEjcHxGxF8Z+dXEjHqQFFZCRuD40fhHkO7/6pOFJWVsDFAfi+C7/xgaUqNKCorYWOA/EwEtzSlVhSVlbAxSP4qgluaUieKykrYGCThPnFLU2pEUVkJG4MkT1Ps9qv6UFRWwsZACWmKXfSpD0VlJWwMlJCm/E0Cxu1RVFbCxkD5FxF8Z8d+HKg2FJWVsDFYwkWf30jAuDWKykrYGCx/EMHtFtr6UFRWwsZgCb9H+w8JGLdGUVkJG4PlJyL4zs6/SMS4LYrKStgYMOEWWvsJw7pQVFbCxoAJibj9SYi6UFRWwsaACYm4zYjXhaKyEjYGTP7nq2xGvCYUlZWwMWjCjLjdQVsTispK2Bg04U/72K0pNaGorISNQRN+wfBPEjBuiaKyEjYGTbg1xa751ISishI2Bs2PRPBx+GGguU5nTorMdKezJMUaUVRWwsbACfeI/1OegphutaR0S2Zbk1LSWciyBSkyM1m2IsUaUVRWwsbA+aMIftO/kbwwJYUbsZhlT6WYph3R65tWsuy5FFX6Nnyt82jhxkeeorISNgbOv4ngN7u9sL2eLUrxRixnV3w+i5iRWAoY/liKCab4CHmKw4n+vQfZ6V98+Sr92y54j9ru6zY7T9sPW32cG4ooKithY+CE3y/s44fEoUTWlrLjSZa9kGIamBchwZznWQbfeiAfZK4wvEdOjd46AkJ3pOjoSDXh3qbEhWmJ94eishI2Bk64qnn1ZMp9au6i4fcQKYzeyvQ2HL3lhiu15tqPOgnZW55nvY8FfE+pJ47BmBK8wOFI/2KFl+lfHF7r9G9nWaoFpluLy1SdkTXsF0VlJWwMnHwy5aqflJhcpfYuGk6dcDmRLnS1xc5Sgq21TucRpQfwcgOGybtZr9y33ftQwpKuzJyvPdKcbS21lzvXHI0qKithY/D8XQTf+ZkENOAYKBk+j3y1cBafWtmclSKBI6CaPbR4SVV6ObrUs5OmI8l/enqx3V5M9fcPs2xeigxOQJXe+/YoKithY/CEW8R/LgEFZKfrSLtLhk+sF0OLG8W0di0lZtHwTfTiT9pLV4zpHlS/2jHVaj1oP8HXbvDJ4x7Gk8TT6szLoyyLDz46Om81TE6jqKyEjcET7kz5tQQU0BsvIhcoa7aIZDaoOQ+hYXgkFw4APbm4ciYlAoOAJ1KMifL8TRg+RYNhR1S7fM6Q01HOmlSsA0VlJWwMnvATtL+TQBqYvDaJ/rFs+CQcFk3nOFFfLWQCCNyXYoVpnBX6nIub3MTXrMqLGPTLnofItFFr8/F8a5mOtLy/vpXhk9ecLlRUVsLG4AkT4v8hgSQzm5TEItutpAq+E599Rq4U/eapZXWS7xpdODu6KS9iFjeR4Sy08D3PJyaRRGUrfAKZfJFlD7gCMcOz3li/dS60J1r0f6otkdRqtFqth+1HGAY/k0CfKCorYWPw/EoE7313IdxGS6cMd534NKcHJb/dRLTWByLvqF6GnC4vweGSj0IWXWASak/jFLLuUyL07eU1pTNMJxoVY2Mo85JXAk8j4p2YHpeSEigqK2Fj8PyrCN7zks8CBnKQI2U4d+JLGOlla3mv6bmX7nkJdLObs1MYJT7IO/nZx5vFmRkPsg6cRPRrOjiSnuFIcx04gTwEWUsMhqpYxEYY96LG00koXpzA4RNRkXU1zUqiqKyEjcHTzyWfaQhMaiQNp06cREhN5iG7WJt51Fl70WmXpwLRLa+suKuHMu/R4mmQlMaziONAKl17jKAKhXVDH1483mY2so0Zyr+f8DllEl+/Nu2i/L7gRq6bnc6zdnuphe/MVtUsK42ishI27gARvNclH6jH2WjacDqpbz5KJiOu43Q8KfTO8xJlKFtZ4HFq9iQ19ULD3AkcZdUZQIFz6vgQK18BmsVZAAlQiwasUPYeOu8NSnpwclqL587nH7Ryo+/hK1fV71RQVFbCxh3wNxFcv+QDTylHSRs+Q2Y+U1JkCAQ6HdY87i1nKbK+/GB24t4SSgtLfCJ48TDtE38vpE2dJgj+msKbyDbiVboPV/nqDpL1zTmeM5e++TGOwcX0UIEEj2c++0NRWQkbd8CfRXD1ks8U7HP6JAwnDTY18yZmOpm72+Q+3eWRZxlTNJ3ns2ZIRmyuaAnvNA6HGer1U/OFALlGeciIPjp3c5pyD5edTEw+fTAxhYPysX+b5hvXSzk7Q1v2TBsm6ygqK2HjDgh3iGuXfOCHzJhVDSe5XvS6Jcr3pJM0hvMikWIbPh2Z5Dnt9XZyiMkgZ0YeQ/l+eqaF0qTSiBH5tZQAzcQU1nvmSdTBP1jP1hO5Ngm+cn3BzfDm8e8iuHbJZ87nKAnDqS/uM1OljlhmB0nwTW/kHHXnGw97uESfpGMD48TkUw7u+k3hBDBV7O+fvLhfucrjwaHTTuT+LLiUr4WishI27oDwlyDShk/CQJ+FVAxH7/ii30wVXbX0q0ghfG8846bn9FkSgC/ZpC8h0xOnixbexkiz0A3fK97ySIePbniKGwtuhjeP8MtuacORJW/whT8A2Tv4JzhNzwr0PVuM8ao8THDvhZ8TJJHWMU7sZTiJ7ZJsqL5a6etplLCEdwqG47vKtw3C8EW60bwATibydhFar+xxrxOLiqKyEjbugGB4+tc5uaMrEmRCht77McsYelpCDodJOSlwTzmFr+hlOOxdc6qR6+WRLs1kdmhFCoYvVSvC8PKUPJ+UpFSABQcbvUYYCorKSti4A25hONINdRqlAj0iVHRsbjPbpAS7p+E0r+gHmItISErSUWimYjiOivKKXcPwGRoarNP/+j9+A4rKSti4A8KTmuk/jSzncwYn9RX8E07e6Or67+UexscGEWYhexlOY9nwLo0JinnKffiPg6RsOF6Xp136N5wEp0v1tMLKPH8PFJWVsHEH/FwE3/kvCeiUR5pQID1/l4KmvQt2oqN1N3H3MJzuHImOIhI6HgBOQ0aaySwbjhUVncM39j3SJMHd/BBGwT0eb1ZQVFbCxh1wC8NfXPEc2FTUw1MSXTzpQ16nYQ/D6erjIykTdKdIpDhertPoFYYXTiZYtDN+Ktz72q/hueB0qbRH+qSgqKyEjTsg/HThnyWgUzYc/m30mkt5Gl3tpFtHivPOyHGummmki0HFR3tI+UjxjjuJwPBCCgJL+car+y/CV8DwfuZSSPA1mf6fkmnKa6GorISNOyDcXHj134EoG06Dx8Ql+2nRguYHHztbpmneuzRuU69RBqjHLl04p7vAozu2p10HXzYc37bamphDOMxm9peH0x1a+f0zOBWkruf3RFFZCRt3wC0MJ7NgxOMW35A3Rb1ie7mz7lWaoiQ6e9Zut5/R9NtaqT/E0p5Lb5lkirr9yhVTuiCaPSt9rmw43wjAPIv68KsNpx48mq3BZ4LuccbVC0VlJWzcAT8WwXf+LgGdiuE0WkzgVXK3nAgVm6mL31h+wOlCqzXXbnc64Vo+mEMfn60VBpAMKx4e5nGUDaekn+DJSEc/ht/DV25GS+bFdB61VzqdjX5TckXlKBwuIoNwlc2CjrqDfLOVlHd2+K1eVA2fmEOsQq7S7GPyFKwlnoWM/RfCJ6f49JDs41nxrHBDOrKS4gMPfC/jxko02QfDk8jbxDStayEtiQ/gMGbtTaRyTBQeZIMSFgQ+eE3Dk8w+RB/nfgJttUM/ZjXfKmQW91tL7Qfp8ah7Oj/GG86zhIVZlAh3aohncXCYlef1plvFuew+DJ+YXS3NDdGjQJ4+b1OJVI6JwoNsUMKCwAfZ8B/kxZW/6zYAZlqLyNI7T+iulwet6Di4t5atV7MKT2u9OAJdaFeekisDw1foWwog7Za3HZOVgeUUjk/6uaKrFh+IVI5RwsZdEB7yadRfHJzJHytOMJV+aq4HyTx8uXP9Ce8rUFRWwsZd0EzDhxVFZSVs3AXhb2r+WALGLVBUVsLGXSB+33SkaRRQVFbCxl0gfpvhtaCorISNOyD8Rr79Sc06UFRWwsYdcI2r9sbVKCorYeMOMMNrRVFZCRt3QDC8j7/GZlyJorISNu6AazwBYVyNorISNu4AM7xWFJWVsHEHBMNv9FeRjRKKykrYuAOu+DUJ43ooKith4w4ww2tFUVkJG3dAMPzfJWDcBkVlJWzcAeGPsYW7x41boKishI07IDwiYYbXgaKyEjbugD+I4Du/kYBxGxSVlbBxB/yXCL7zSwkYt0FRWQkbd8BfRfCdf5GAcRsUlZWwcQeEB5F/IgHjNigqK2Fj8PxE/N75QQLGrVBUVsLG4Ak/zGk3z9aCorISNgbPL0Vwu/GqHhSVlbAxeH4jgttF+3pQVFbCxuC56s9pGtdDUVkJG4Mn/Elku+BTC4rKStgYPOGCzy8kYNwKRWUlbAye8JtudsGnFhSVlbAxeMRv+023mlBUVsLGwAlP2tsFn3pQVFbCxsD5VxF8568SMG6HorISNgZOmA7/kwSM26GorISNgfMfIvjO7yVg3A5FZSVsDJw/i+A7v5KAcTsUlZWwMXDCz+PbZGE9KCorYWPQ/Ez8tqmUulBUVsLGoPmVCG4/y1kXispK2Bg0YaBpdxbWhKKyEjYGzV9E8J3fSsC4JYrKStgYMOFv2ttAsy4UlZWwMWDCAz72N3zqQlFZCRsDJjz+YI+w1YWishKOWGnPSGlior141Z98bmdZW4pGD8LN4faAT10oKivhHCj7VIoT81n2IqX4zKNgdWz48pMH1/0b6OPCj8JvpfxcIsZtUVRWwoG5LFv1ms5sZJvVv8E/MTG5nmX3pRwZPr2ZZQtSNor8Qvze+eFHEjFui6KyEva0NrM1n6RMrWbZAy4tPrvH/3rQt/vDIDJ8GVEpGiV+L4JfLw3PxhzZDQqKykpYuI9em2Wen56YfO7lfYAvKyreybIlV8oNp5491eMbIPxk4bXScNfO44vsBgVFZSXseIg8Y54KC9nG/DPv7lw1+7iXZZvTXMoNX4wSeKNIeL5n518l0hfS0GOL7AYFRWUlzDyGtyw4lcAKl+9tJNJrVFjmQjB8Gt3/LJeMCuHvm1xvNhxtcDm21G/4FFKPdUpGpvDfPLR2+UpScO7EqV5u+ErozI0KYa7wjxLoDzO8F4rKShhA5VUaZE6vv3g4MTGDLHwDHXpacM7EF+lfb/h9ZWJxrPnXn7p/w6/O7vzaBfrEDO+ForISJuafca/8JMtgOHfK2YIX3CUvEfNZ9pj+9YY/tWFmlT/8zSkeHtHcEeX7ZDQMvzi8kFKZr1+lkGIAhjseZFnHlR7hO5Bcz6EjfyFZd8QjN6kYspQ57tKNiB/9sPM3/jH8kKT8meN9MxqGv8k+SanExcvusRQTDMrwWTjtJ8QXSXG6tDOJnIT79SrBcKMCjS//8uM4Sfk3eadPRsLwd9melCp8626dSLHKgAyfehG5PL+Zrbl58Km1LENf7rjXicAba1JknkglY2LiTyQ1FA8/yXnNJGUkDH+XbZ9JscrHbPtUihUGY/jksyx7LmXqwl/47nx2U6ZWQAvfrbImlQzfdf85z8KvmaQkDT9y+5nY3ts7/Hgu8dvy5bDAkYSvwcke8VZeCYdZ9kWKxBFqHEiZeJu91PzHBspuUFBUVsIOEjxbmZhpExhxZquuY16l/RnmSszw/viteJ1zzSTlKsOZrcN6HH8nyxPUzELnDX/wpbxynHSzfSmC76/Ki77Yzt5IsQxqym5QUFRWwgzNiJPh9+mfBI+kXozl4SrhuTXPD9dMUvoyHI5/k7duxWtZmuA1PP9y8KoorcaJ+2Ch8sVu1g199OlBl2sUDp6PxT4+AjVlNygoKithgu602uQ+nNaD+m4k5S+4P2+351rRDYURZrhG+PmIwLVvDUczSHPnVA3PXtbRi+/JwgSv4UuU+zPcdeHFyshRfE7yJRxCBcPRib9MTyaipuwGBUVlJQxmSPA5f62emHyRbeZS4y2ZRowxwzXCUz2ev1z7xlk0sjR3Dhsukpwc7dAr9UR/Hcjwj8cBP8fRt+HowrtfSpVPu3kXnp8jCoZTJ34oxSKoKbtBQVFZCYOnJDh2am44InIHIfP0EV8RKmKGa4QfxBd+uP4jyGhkae6c2HDges4aOnEyPJHu9G04VuTt11LlD3kXfvke73UPdvH/ouEX0VFQADVlNygoKithMLu5MUc7NRgOeddanspFTcEMV/i5iB247jAToJGluXNKhp9xbltDJk4qJ2bu+jX8O+od07rFlXGG+S7Fyy/w+4yPo6Lh1Ll/kGIB1JTdoKCorISJhzQdmBsOd2MSGQphhiv8QcT23OTPxGK3S3PnlAy/pF5Ru2h4HW5p+EGW7fC6RZW/YRQsRRpnUk+dMBxpyispFkBN2Q0KispKOOANn1zGN8T4i/LLPH8YKF/xAVJxvPlR+CFOzw3+Aht2uzR3Ttnwt/Q6ZLInh/t7e29Ks+Snh4d7eweHhcuHlRipXM4WkI9vI7xNibm3//z44/7e68PS5XY6lXwsG75fHSEkDKc5mNRlH4RlNygoKivhgBh+/wW+4Lm/WfD+Zv58Gs8o9kQqjjfhZwpzrndfIYGdKc2dk+zD5TT/heebiWiW/LtMcqCrDFomYlt4IcWAq+KQg+grKU+8LNw1hS5864Ly7thwLPKjFD0Jw+nYSp2DUFN2g4KishIOOMOXsPgN/5DDxHQ8UWiG98V/itYx11YcO1OaO6dkOAZq4DOX+S3Paw6hiyR1ha5YmYpRGT3018NPeb/OFQQ2/CK+LhRNgVAXjjHlIaK54ed4Vb7tJGU4YqULoQxqym5QUFRWwgEyfPY5lt6Z8rfR0gObYfhZxvLwJD8Jvx4R8cN1/5AmmkGaO6dkODpPwOkFzWQgGz44dBNzrl88o+wj23r7nucVu2xcKkZCvfQXNg9khtq9crDP7tte7rkjJB8gUhzrUDScBp/l9CNlOPKscohATdkNCorKSjhAMi9g4Y9g9ipn31MQ/Jn6cIMZniS/FyXmuoqjHaS5cwqGnzolXbbLKQqL+I069m0OcnWWne3kmqkYCbWd5y4uIy/n4Se03JdU+kqlMMtHXTgtpWg4HXHlizkpw5Gu70gxBjVlNygoKivhAHfXD19wUjKDYeTjGWTkuuBmeJrwJ02K/HCtB5F1w7f4Jqc9d70n63JPyVfNd7kOSSOT5FQSfyhjf0XKpWJnKESE+6EKcynkp/uyS7q4Eya76UChM0HRcFpTKQZShuNT7mgsgpqyGxQUlZVwoJCQ0GVO0ENwMzxJ/mx9iX9c69YU7Htp7hw2vMCWDBZPPrzyI7tPFOdJcspYxObPb4+ct6nYKX0i2/18fHxI3XOQNzac0yCfMtMb0on7LrxkeMrclOG0slKMQVR2g4KishIOFFPuOXxNtpa4lBkww1P8ToQu8Z+/4Ud++ibV9GXDu++iXPdCsgKuxOJzHlKaqkjF2HDuzZ3IPgOJDaepksxPoZDNMsL1XfgNDU/19QBR2Q0KispKOBAbPi/zJutt3XEzPEX5ij34+x9+Vd99KZ6Xe+99OuE5O/50eMgJNRv+meu9+hRXS8XOaPAoMx/8aRlGxobz1LufheQ0hStRF+6u2RQNT/XNjcpSFmhKPFuZp0xlY9n9/k8VMzxB+PPHnr/+/noJuIA9L82dw4bv0tjvuHo3ypd30TygS154vhzs7Iu/IBW7PD/2t7F+o/fktu7YcBrKdqUcVaIu3H20aDgdA+XjL2X4e3+AFEFN2Q0KispKOOAMn118uolvyFboGZ8HGHBm2fMl/4xPATM8QfibPcyff/sziV8X7HZp7hw2vCyJ45uMPAVn+Gm4CpTtuKQiHYugiWw/nx4bTkdPEJjTGqpEXbgMcIuG0zEQbksRUoa/89M5RVBTdoOCorISDpDhi6y0+E0srvPr9YTLZniVH/1d3N7Z+eGPv/6xRG8A9rk0d45uOA8v4ezewSHPpcgA9OJDLv5r6VNTsYhI5dhwqh3m9dhwWg+6afC1e/SN/N3Cv3Js4ZWsQyBlOJKicAdiBGrKblBQVFbCATL8HhaePX3o/SbmH0Py8KRmhBlexf9Fk7//xy8lckPQDNLcOarh32kOpHvIvnKl3K6TAy90ng6kYh6aBBeVY8MpHG6l4slJylJKj78RcrUT9cuPe6YMx1ekbi5ETdkNCorKSjjQ6SxNTCw/nq9OELYep35QYqHTSf0k1ljDz9b/5Xe3/5NUaGRp7hzVcBofduU22pLh4PSjEzq+myQVYygoiUM5Dw/XcHjGhczUDcc75cvxCcOpqy8nMwTCshsUFJWVsFEfP/5h50+/ue4jmUnQyNLcOarh1MO+k3LVcEBZcvZeXghR7OKLH2nS5XZfMTacXfZj04/0gj6hG46DIL971pEwHOt6p3fPGrfmZ7+6RepdAI0szZ2jGc7DQ1GLc2P/hO93l7gASmPcMVCJXRy96QaT+dOSX5Dhfi6PE31/iJCr5RuriiNNviusdJglDMcRUr4DkUFN2Q0KispK2GgiaGRp7hzN8AuKy4iN70thR08/7uZZLg0gcQykYvQ4jk9XTulsIBfn3cSilC/ojW2XpvBAU6ZQAiXDaQLdH3NC1XCaiqmOdQFqym5QUFRWwkYTQSNLc+eoWQq5uMWufHOT4nTVkvzx2Tlfo4HEqZi7XrlNwVPqtsMRwFd/fB/LmclrUtxV8mmNp2z4adcfECjzFD6tpJvM93F8JjVXaIaPBWhkae4c1XC+Fr91IBc0AXefHO2+h1L7JPY2XSVKxdwdtdnevpsq3/UCct3s1eEhWc6dON2f+44LFTPLhlPAHx30Xkx+Xuimxplm+FiARpbmzlENd/o5uGtmw885X/a4e8FTscJTEVn+g5nyOz9ibqGSu4slpmL4xcvQiSuGqz8mYYaPA2hkae4c1fD8kub2V55Ycdfd48dyXsq4LxW7PMm9fxMlxpy+ADc/7n6Xjegm5rArhlMWJJ142vDz7fx0UQJ1ZDcoKCorYaOJoJGluXNO6OJh+nczLw72kHXs0mPIR6jks+TTfR4u7r6O0uZU7PL4DQVfvSvOj397TUfOlr/seMTz7nsHqdTiGN9amhfZ90kIvRfjbqp5408hVfA1shsUFJWVsNFE0MjS3MPLm2xH6aQBchT1R27N8DFgFAy/eB2uQ1U46eqCm+HjwCgYfnmxJw9KVNnpIbgZPg6MhOGX5++qN7I7jnoIboaPA6Nh+A0xw8cAM7wXispK2GgiZngvFJWVsNFEzPBeKCorYaOJmOG9UFRWwkYTMcN7oaishI0mYob3QlFZCRtNxAzvhaKyEjaaCBp5rJHdoKCorISNJiINPbbIblBQVFbCRhORhh5bZDcoKCorYcMoc6Vi/2QUlZWwYZQxw43Rxgw3Rhsz3FCYaYW/zTjMjIrh0/KXjDudR+2FWQnegieyNEb+IOe1eIzPJX+qXKXuTfBcf02A/OGMpy15PbyMiuEz3CCeZ/MSvjHy2+MO/xfAp1qtfs2jP3WYXU+PujdBKK5Jf5tAf5pReCShoQXbIKVmUlHZUQkX9YAgEr8pshiHN3ze/WmJPpjeoM/dxvDbb4KjtCZ9bQL9acYse9Hhv2FXz2r888AmSKmZVFR2VMKkB/0C+Gyr1eYO6CaZRQSWsNjy+HM8usM+DX9Cq3ADw+vcBEdpTfrZBPobu9ky/VmvqUfZ5rAn49gWKTWTisqOStjrwXAf9EBe3AhaXPzHIxxL/Rr+IMtWkedcYXjp5/tr3gRHeU362YTFLNv0f0ZgroZ1+OeC/SilZlJR2VEJF/SYmMGp+amUb8QsFlf924SP+jR8aj3L5q80fH6tuLCaN4GprEkfmzCNzyxKeQQYTcMnHmfZmhRvRCu5X1b6NBz1nk7A0J6GT0G8x1Jmat4EprImfWwCuvDVHn8+etgYUcMf4qXrg6cfPoVKqyvRmxPT7c56tva0nech5chcVa/7S23kp6ttQrr3qaXOJsahy6V8hv4E8z3as737cOql4z+PVfMmEKU16W8TOlm2JMVRAFsvpWZSUdlRCZf0oKalIdL0Mv9BTeJpyDqWoJaDh1OpCAZkz7mQA8kCzofFsOzluM+bdJ0zwr0Nn7iPz0cu1bwJoLwmfW3CFELxUTLsYNuk1EwqKjsq4ZIeONNSB9h2DciTX9mqvMcTxKsdbm6X6VYj+Hx5lqysx6SbpXB/o/N5sMqlF9AF0SsMn5jD6uUrXfMmgPKa9LUJGJtuuNJogE2TUjOpqOyohEt6oG1f4B+0+3q7hUa+RxNg7hrKNJR5Tu07tbSxzn8FvBqhv6+5MtPudJ61F7y791stqPCMpw+pv1vGEtceTE9MzdPUnp8yRz28IqHkn57MoeN97DvPmjchsSZ9bQI23Z2+Zv2KDTfYMik1k4rKjkq4qAeluE+o0FmSZqJxnesB0UdtigPTbq63GqG292f99XyxWEYYps3jrVX3qcmnKPuMehK9LQ8gEbvS8Il7MI7NBDVvQnpNrt4EbDpqtKh7X+vMcWiowXZIqZlUVHZUwgU9JummilLjLCHE3TFa0J/shWqEphzAC5chhHwl1gP6eKcmJtC9bkpf/8hlBpFXC+5mkzSUfWy4Va15ExJrAq7eBGz6I+rIHSv+FDa0YCOk1EwqKjsq4UiPqTYlluULgnTK5muTD9GUxfNvNTLxYAMnc/w785C6cn/5I9KDFpd/Bc17uEr3cFA4nRByhWCLDq95zZuQWBNw9SY8g+Ho0Tvt9lNaidvPyf+TwTZIqZlUVHZUwqTHC+oUJbnI82KBKnAWO43Cs0LPVI1E53q6/rEpeUSkBzrNLPR/E5P4Vv5GuuAtk9yo0K/hbh6j3k1IrQm4ehP4psIXfCRNUe7id8Swgk2QUjOpqOyohKn1c9bC2Z65v7jMswwuSs22UZjDrkYiKFuVG+wiPdDTxTMO0GKd/kUi4TKDolcqk7QcSUbq3QRlTa7eBDK84w8WHCaV7GfIwOZIqZlUVHZUwrke650nsRxTC09dNg1cfNIl2U/yzqkaiUG6KqfqSA8E46anBcCn2ZAZ9Gf4FBnktax1E7Q1uXITyPC1cDagw7t0dhs2sAVSaiYVlR2VMOkRWyFMtvmUv9lZplzBV3hICWaWPc8FqUZynrhpOxDpAYF4pkOgpcPU5+j+eC4OILLY6v2YDN1e9VQ62po3QVuTKzeBTI8GAAhe++mJZoEtkFIzqajsqITTekyjj8zWH1HDFSs84NtTwx10oBrx0BSG0zDSAzrFl4Qeoc40381SotetJVMQ/FkQvNZNUNfkqk3g9DwKo/6Q312IzZJSM6mo7KiE03pQTim3yZUrtJCGFu8LqUYccnERRHrAO+nYGZo97uFVEpoQfJ4LXusm9GN4chNwnEg+7sDXD/lNKrJZjaWisqMSTupBt3b4Pq5a4T7O/vl8MFGNEDhty4gs0gMju00pErAFBs3wPU0Cvm+l3e5xGyqUWo1z3Do3QV2TqzZhYuIequerhY7e+vCBUlHZUQkn9YhvQE1UIHuKT0NWIwBNLyMyZBVeD+rY85p00dy/40GFniPNqZVoREcMbBPiNeljE3AQhONyEnUsDx8oFZUdlXBSD5yzwwWLVAX0d6U+ViLTkXp0wpdMAKdsvzwSIk9XaWq5rHMiVOK+n0Vx1LsJEfGa9LEJdC2UC4DmUqJEahjBFkipmVRUdlTCST3QAfr5MJ5N4woz4VnzKYSoE6tEJp+/CCF+aFESgXxWxU1A+6vqNDVXmTbG+1cYXqLWTYiJ16SPTaCiz0yw8eEAG1KwkVJqJhWVHZVwUg+6Eu3a9h7Ozq7C5PPskfRK1G2hs65G8I+fo5il+Qm5NsjTDX56jq91ukotyn0r04KoW4PhN92EmLAI0M8m0OY7xVF7Mxw7Qwo2WErNpKKyoxJO6kHn4c2nD1tzK5vZBpqTKtDc39rjxVZrjuYdaOa3GqGbWrP1x+259hMsIZ/woOVtoOIyudDit5YftGm2o5wYAARrMPymmxCDUFiTfjaBrkNlKwutB9TJV+eWhgxsg5SaSUVlRyWc1MM9F8A8m8b5mSpMyiMFDLtbjUzc45llIbrfg2bUCG72+xBOkC6vAMI1GH7jTYhALF+TfjaBJuqFwtNLQwk2QkrNpKKyoxJO6zHxwDUh3eONM66rMM0dM0X9NFw1MvGAuzWwVuidaeYNuJuiph9TXw9WUmdyxOsw/OabEEA0WpN+NmHykVuav2VmmMFmSKmZVFR2KOEqk612u10xbfZBu73Aj7l4qpEZRNpL5amyexQNOffkHF7NV2bQ6+Xmm5Cmr02YXGi3Hw75PKFj1A03xh0z3BhtzHBjtDHDjdHGDDdGGzPcGG3McGO0McONQQPHxhrZDQqKykrYaCLS0GOL7AYFRWUlbDQRaeixRXaDgqKyEjaaCBr5cmwxw8cAM7wXispK2GgiZngvFJWVsNFERsPw071TKZU5PJRCCjN8DBgJw893si9SLHHxKvsoxQRm+BgwCoaf72YHUqxwtp0dSbGKGT4GpAw/Ow58l1BTOE2sEATfvZByleOs+1WKFczwMSBl+BGCOXtvjiVeE194sS/lVf+cHb6kD26/L+Xc77Ju5P3ZO9TZkxfEx6z7TYplUFN2g4KishI2mggaWZo7p2g42KvV8V1eZtFwzcGIz1v8OdD9LCHmaxan2kdcKzYc37crpTKoKbtBQVFZCRtNBI0szZ1TMTzrkcteG9eFR4Z/fb/XR49eWKlI8fPtbNvnKBdH7ugpGo4vVEabqCm7QUFRWQkbTQSNLM2dwzJt7THSccZ5wC2BhDtYYu405R5XGn7SpdXY2X/HK7R1JmHKUYK/h6GXLxiOb4zqx6Cm7AYFRWUlbDQRNLI0dw4b7iU5pbwWbsnLW4MedRuJxXUN5875EwoX2yhshU78BIvzXfgbqsMUDcdXvpNiEdSU3aCgqKyEjSaCRpbmzikYfnl5QC+zdC94faDqASUq1zOcU5t9Ln7M9o7yqROsXEhBPqDO7pc9/L9o+CX69hMpFkBN2Q0KispK2GgiaGRp7pyS4RecIKhTbtfjGIv6Tl9wPcOpe+46ry8KUyno0cOx9xV+X14mDH+bZe+lWAA1ZTcoKCorYaOJoJGluXNKhl++otc9Lg1eB6i6x19wPcMpw34r5RjkO/lHz/nCZsJwfF/yC1BTdoOCorISNpoIGlmaO6dsOLrALPP3d1wc7e11s929g/i8T0FkCHsfzyUAUjFKm7MvseGHhzw+3MK/h35O8tvhm52su3eYd9bfaA0Kc4QCVq2cYicMP0UoNVRGWHaDgqKyEjaaCBpZmjunbDhNfWQfXPljmK/I3gRpPtPoj+lKtXSMu3CofYioGO6qONxBdPFeXmbd9z7f/kQvUzdXIYEqT2QmDKfTROoOLNSU3aCgqKyEjSaCRpbmzikZfkYv5dYmcjOwIwJ+lteMmJSKuS4c6U4vw0/5eBJeyzfwYJdOC4evD79G5wRatXLnnDIcsTdSjEFN2Q0KispK2GgibE6JkuGkjAzzuC/N9r8cf6DkWYZv32kk2n3z6es+xdyhkIoBdOG0oF6G85Tf9tvD1zy+ldz7NYpbl1/ltJCfE+iIKXftKcPfVUMEaspuUFBUVsJGE0EjS3PnxIafHbHLcvMezUp3OV0+I9u2OfiR3uesnOf0+BJ5KuaEpAVFhoPCSJOrc9d9yl/ssn2+RJSfFt5J1861pRhIGY5zQP59Oagpu0FBUVkJG00koYgzvMhLdooM9fNunC1zwkAD0Vccow54h5PnVMx14TS3pxt+QS/kEs53FCW54CrcqTv8zbJ0TpFiIGU4vnBLijGoKbtBQVFZCRtNJKFIwvBdP+f89f0rmUPhSnzDFOUVIuW3T5IzpGKhC+9hOPfT3l+epeQ0m7tzjDxPL7/zkcXHCcCCKn1zynBaWSnGICq7QUFRWQkbTSTV9GXDd1P3XXElTljYuXfxnGA6FrrwHobz5/yNhnSN0k2VsOFynzdn9jI7n+qbU4an+nqAqOwGBUVlJWw0kVTTR4bv7r07LF/NPPl8+HZvj6c82HCerM66bz9HQqdi1IW7pEM3nPr+zPX9fDlHhp9suFhNk9s+sU/1zUqWUunrAWrKblBQVFbCRhNJKOIML0sinB64jMHhrtHwFSFi71MQOhEje12KoxvOQ1kpu8OEL+hQlXDvFyUv0nPTMdDPXApGmqntQU3ZDQqKykrYaCJoZGnunB6Gf4iGe8AZfuHuzWL2xedqLO/CexhOiw/vcG/N60FVwmMMUT9Py5RxQSBl+Lv0NX/UlN2goKishI0mgkaW5s7RDZc7afcPj445Y3aGo7d9F8zf9ll0OUb584676ZyE7eJfl9/HhlPtouGvqUTz4SHMK+F6brri49fBkzIcB0Xq1ivUlN2goKishI0mgkaW5s5RDefEeMcpxZVyuy4+75OpINyuXYq5o6OAu9YZG87uS9llKTyxwqNLjgFekJwqMBoo3xKWMnzL3VteBjVlNygoKitho4lE5gRUwykD3paJupLhxLHrtQszL3msL8Ops/b2uqs/LDBfQPIzllTHXWviuZfyiiYMRzLj5xcLoKbsBgVFZSVsNBE0sjR3jmo43XXlJ6sThksn72sIPvbBZSgE99T4t5qlcGddmC3kmRy++ON7YRqN+rVDNy+3jQcShuMA4WSnDGrKblBQVFbCRhNBI0tz52iG8y1Yrt+VyRJ3Q+v5pz0/3KNjgGc/UrFAdaTp+2Tutt2zPPLkmku4qY6sEdvuq9ATEP6mFyFhOHr91K23Zvg4gEaW5s5R+3BKOMRVdw8WdcInNLchxvHjQMgrUrGIouF86dL322T1lktTOA2X2ReemXEqczcf5ujxRrDdUTWckpRSR+9ATdkNCorKSthoImhkae4c1XB2keS64AQiejRYkm/OlyFrKhZRNJzPBl5Td6MWKX7Cd6LLieCMDpMuFHd3j+dTf/imkGIf02MU/LNBL7nk83kcBaXMSUBN2Q0KispK2GgiaGRp7hzVcNdxvzp4DYHZP05ZWOFsD0rxEfCKustULKdoOL3C8vZfs7dcP9t7xylKyInkq/l3KIrDxs+5vm5BOXItCEfHtpe9COrIblBQVFbCRhNBI0tz56iGu8yY2eJ02AnI3arnpZMpFQsUDT/jg8WHzvPvKExiR1eQir95tRffh1VADMcnk1m4GT4WoJGluXN0w8/9lN/rM75nW5JyuYccdN/57jUV8xQND082uKuW+VNsO4Xc5oinHcHr4nX6k65PcdKGn3aT1zMJ1JHdoKCorISNJoJGlubO4d+eLV8MF74cvt5zTyGfxD9N+/mAZgEPPsQup2KOU3w0tvf8wz5qvnF5O97+iFevD7+URofnR/jqN4fFlB7ggHRjUFpsDH/+4lWYwq9gho8BKcOHjQ/ZVrFbjznItpSD1QwfC0bBcKQnpaFszpcegpvh48BIGI6O2mc4ZV72ENwMHwdGw/BLTfDLkx6Cm+HjwIgYfjPM8DHADO+ForISNpqIGd4LRWUlbDQRM7wXispK2GgiZngvFJWVsNFEzPBeKCorYaOJmOG9UFRWwkYTMcN7oaishI0mgkYea2Q3KCgqK2GjiUhDjy2yGxQUlZWw0USkoccW2Q0KispK2DCGDUVlJWwYw4aishI2jGFDUVkJG8awoaishA1j2FBUVsKGMWwoKithwxg2FJWVsGEMG4rKStgwhg1FZSVsGMOGorISNoxhQ1FZCRvGsKGorIQNY9hQVFbChjFsKCorYcMYNhSVlbBhDBuKykrYMIYNRWUlbBjDhqKyEjaMYUNRWQkbxrChqKyEDWPYUFRWwoYxbCgqK2HDGDYUlZWwYQwbispK2DCGDUVlJWwYw4aishI2jGFDUVkJG8awoaishA1j2FBU5rBhjAiidYS8YRgjgWgd8f/KO4YxCojWEf9D3jGMEeC/ReuI/+1/ynuGMfT83//7/w94mDw6+Qym5wAAAABJRU5ErkJggg==;" vertex="1" parent="1">
          <mxGeometry x="820" y="-880" width="574" height="387.85" as="geometry" />
        </mxCell>
        <mxCell id="LmEIZnUeqxn2UF4arfpl-3" value="" style="shape=image;verticalLabelPosition=bottom;labelBackgroundColor=default;verticalAlign=top;aspect=fixed;imageAspect=0;image=data:image/png,iVBORw0KGgoAAAANSUhEUgAAAbUAAAH4CAMAAAD6soNdAAAAAXNSR0IArs4c6QAAAARnQU1BAACxjwv8YQUAAAD8UExURQAAAAAAAAAAACAgIAAAAAAAACgoKAAAAAAAAAAAACQkJAAAACgoKAAAAAAAAAAAACYmJgAAACUlJQAAAAAAACcnJwAAACYmJgAAACYmJgAAAAAAACUlJQAAACcnJwAAAAAAACYmJgAAACYmJgAAAAAAAAAAACYmJgAAACYmJgAAAAAAACYmJgAAACYmJgAAACYmJgAAACYmJgAAAAgICA8PDxcXFx4eHiYmJi4uLjU1NT09PURERExMTFRUVFtbW2NjY2pqanJycnl5eYCAgIiIiI+Pj5eXl56enqampq6urrW1tb29vcTExMzMzNTU1Nvb2+Pj4+rq6vLy8roYF+MAAAAzdFJOUwAIEBAYICAoMDg4QEBIUFhYYGBocHB4eICAh4+Pl5efp6evr7e/x8fPz9ff3+fn7+/396RlV9cAAAAJcEhZcwAAFxEAABcRAcom8z8AADD1SURBVHhe7Z19Q9RM1N6BBx6wPEip1u4jtVLqWiqldBtAFMUXQPRGUOD7f5eec+bMZJLMxe6GUSa78/vjvmcvkknOXPOaXTMzDeZebBeZhNnemFerPF7qHzPJ0lerPHb1T5l0Uas89A+ZhFGrPPQPmYRRqzyAnEkDYA+QM2kA7AFyJg2APUDOpAGwB8iZNAD2ADmTBsAeIGfSANgD5EwaAHuAnEkDYA+QM2kA7AFyJg2APUDOpAGwB8iZNAD2ADmTBsAeIGfSANgD5EwaAHuAnEkDYA+QM2kA7AFyJg2APUD2mF3WhGN1SRMBlnu9O/6aGRNgD5BLng+KJ5pU5gfFds2Z+QVNzPSKYk2TM8tOzbQE2APkkkeDYvBI04b1+g8r5zeKrVlNe67N7hRb1TMz4wLsAbLH06LYmdM0s0g2Lmpa6RfFU016rvGJ1sxMO4A9QPYhT15okqGPzzRpWSqKgf4a3XNtu/Qy0xJgD5B9yJOiHMeeFMVrTZZQp7lpUqVrj4tiy6QyrQH2AJl52lPeFK80RewWxYYmy5Y0T6ox1rk2u1UUjyWVaQ+wB8jM0H8ita0HEmSWaWzONRrVtPll2iPlrGkPIDPjuEargUJGNusaCXaoy7RHylnTHkBmHi0PwZ/WvyiKdf6/dW0jT0ViAOwB8tgsDV7Imtq69uRNnopEANgD5GHMLy/X+j9dmblxzQqZ+wDsAbJhWSeLBv8p1pozRxwseVkUzzUp5IeS9wLYA2QDNRwPsakoXvL/fNcojQn8o+LM6EgZatoDyIbs2kMjZahpDyAbyDX7NY21KeDakvagQp+WaZoU3FGZNgB7gGwYzbUK5WwkEwFgD5AN2bWHBtgDZANZ8FTngs+zaw8BsAfIBrLAI7v295GC17QHkA3ZtYdGCl7THkA2kAVDx7Xa08r6Krv6tDIzJsAeIBtGcW2cbwYy4yIlqGkPIBuyaw+NlKCmPYBsINeGziHdN96G+irb/8Y7MzbAHiAbyDWPsGs16JTwHzJtkILXtAeQDdm1h0YKXtMeQDaQBfnZyIMC7AGyIeDa8rL8gjW79ncA9gDZEHBNya79HYA9QDZk1x4aYA+QDdm1hwbYA2SDcW2W12sb9pfEs7II2yqKFflYJ7sWFWAPkA3a1sgiwv4odVM+od+oZteiIkWtaQ8gG9S1p3xM37atVf406IMfX2XXosJlPa5rQbjDxP8IdKHxQ8nMPQD2ADmTBsAeIGfSANgD5EwaAHuAnEkDYA+QM2kA7AFyJg2APUDOpAGwB8iZNAD2ADmTBsAeIGfSANgD5EwaAHuAnEkDYA+QM2kA7AFyJg2APUDOpAGwB8iZNAD2ADmTBsAeIGfSANgD5EwaAHuAnEkDYA+QM2kA7AFyJg2APUDOpAGwB8iZNAD2ADmTBsAeIGfSANgD5EwaAHsa8hz/uydBhUgsUY5jvQq58tKg2sY4dxM7hPZ3wjzubfQ3n419mqFhj6EhL4tiePOy5cWaLA0ov7F29tox92CQf8I/KrFDaH8nMzOr9i06G/4OTSMjp2raoyH7IROvI9VX+TdwzrWVfn/ov5eSy1tau0bcOwTNx2DvZJQQZmae61nEdpsXismZmvZoyBzyy16vt9l/LX/bjbL13TPJy2XVK4qeJhFzdPzrvqW+C9WdRA4hfCcjhCB7UxQ7zx8vr67vjnJ4E7l/TXs0ZA7ZVs5V/nehbyK8mH9xUHA340qPquCwGBbo+FadSvQQwncyQggzK3Tma3Pq4taG/H9MKIOxXTOVJcKLsHhbPcrJufZyeMi8f5gmhzH7tNqYIocQvpMRQuBhYdNWmNlWNYcu3cK1GepjWlWSCk+4ulO+rnBfDQ+Z7mPEt90tbBfbFdsihxC+kxFCoLB37/kPZ9mdFq6tU4FrcubRk15vpVqt55af9qpb+jYV2Z3tMfcz7lxqe9WQ53ibjmW/H1odfdM9qvZv/FMjhxC+kxFCoM75uSbbwu60cI3qi+nUF15S2TNvyqn0/DrP54l1e7NNhaBq+VpGB1NcFK/DKPMvzFm762XVXCuKV5ocxixdYMu7XuQQAncyUgizpHi30QrJU9MeDTkQMvXIC1SfLQO7hSHNMSy7ZhbcVAiqq4NFzzXzd4Moy1qYxI6bHtOsc+Tp/hwNIP1y3IgcQuBO9AABhkC3savJ1kiOmvZoyLWQtXuh2lzs9nur/NZOuzPv7BsK/8XK8pMXdMtySlMh5mn2SNNlr631OZNtmUdzxXxMn4qt9bV1XtMN7Gk0s6buZWm01yaLba6SRw4hcCcjhUBu33u/F863hWt0GzyULxU72nYoBp2SUc+hR86/NF18UyGoivP2sZVxjdLu7wtcTc1G6twqdrTw6bTNDfpMhTPCDHCOPPErecwQwndCH4eEQOfxRoKPepu9tZHqXgC+6viucYCyrlx1HRBNyczgTnW4VpeaiqxZZHtt6BrXWvsGGq6zuhup15/ZzdIX9FFgiBWu5VqokUMI3AlBH4aEQJORZ7RO49NoZHQ9wVjIuZr2aMh+yPMcsdt2XuF3+0iC7qoWYFPhDepNmSHXFildbhvLa2ITH3dom73VZzKDMLWX7+ZuNmUCETmEwJ0QlB4SAnm59pjPEXbLejQGcqqmPRoyhyyvqH7Wk2lR43EQHyAadSaD6hS/qfAa12yvjVzjJ3XlObyiNc+M5l5smpnePJeaLLiGu2Y6ycghBO6EoOSQELapAtDx9JclPqLVjp103siueZRdgmF+mR8pSr2ZoxLZfebNuAPKI+0fsWvUW/lrWAq1MeG3HVB168Ua3BO9MpeOG4KP1xVSakgI/LR/Vyer3G+OMDw3oNPGd22rsk/5Uq+vDd609qdSkde9mlxXeEZmmg50jXpQv0uicnFLYgt/yzNsucoPzGyxRA2hgncndNSQEMg1NyPmfrMR1wjwnY7qGj8w7/XWKi85m+/x81+C/6c388hIG+7e6gr1DKZ/hK7xg64XJilQjzrQZAm1oyE7ptOFyoEjaghVyjuhQ4aEQMeWdY06nUDpD4XvZFTXAje8xlVw8PLZ8hwXvz1g7il3AxSiG+4rCq9Y38iipi9fmrzu92VTbS/keUr67YhHAE2W0Lz77opKBbVbPu+IGUKN8k7ogCEhUJsz0TL8dU95hyNDZ93DNe6Attaku/dDJlZlarvl1elS4bxqmK6EErZ7oaT/bJeKZUeTJUErPWic2vWmEDFDqFHeCSWGhECLCG+Ipo7ZLg7GgG+jtWvcaF5p1auFTGdwM6r0YFYZxTWq17YTZejM5mSLyuGu5//8yMwvkZgh1CjvZHgItOD2nmiRa5URdjToKu1d42HD9heNkOXpbTlmMU1FTnMKpW3IdKTLmk6k4Px6a6A5jV8sNRYGVdP+WAhEeSfDQ+BlnOsUefD72z0k3Zerd82Q5f6qFampVFyjAd+GzI+QzMMghruxRpXkgeOuJ8mPXrsn1cKfCqFyJyOEQN2sG9got+YsaziUV3vXaGB1LYBnQ7UDuCJVO+2mUnGNOhFrA3+f4fpEfpJiHuz2vALjpw21le+dxA0B3MnwENg/1wbd04bxoOu1d42uaX97IesZOaD30i5G+fcRnG4qJRXXKHo3UPETD52uzXKpSK2lVem6DZgfyI71YCFqCOhOhoZAaRrw1FmuJ/WGOwp0WnvX+Hb50czMIvf25gAKZ2dVQlyhnpxnGU3Fo+Ia9yI8WZ7nUKkVFFvLszOz8gTYdGN8GTPhW+LkeL+yihoCupOhIRBsvDyv4cyaU5sRoAzau8bPOKhu9emeBs+ob+ADnnCNLd5sbPKNSjBNxaPiGncjlN1ryWiOp2v0Uf7blyIzU2zC/Kk62RhK3BDAnQwPgeBHZ8XWS9bdY+ex4PNbuzazyPfIvF7kvkEOmKdpsPLGnNFUSiquSeVjZHU6S72XUq5W9REF4/1gYCQihwDuZHgIhKzsGX1EOi5yrqY9GvJCr9erNRNmtsfVaZMna4/dAUu9TarB2/3yuWhTscxRvt6dL76iCjjY1L5+4QVXx+3q07/HG1J3X63q55GJHkL4TkYIgeR18nx7ozrJHR2+7CiuZVIC2APkTBoAe4CcSQNgD5AzaQDsAXImDYA9QM6kAbAHyJk0APYAOZMGwB4gZ9IA2APkTBoAe4CcSQNgD5AzaQDsAXImDYA9QM6kAbAHyJk0APYAOZMGwB4gZ9IA2APkTBoAe4CcSQNgD5AzaQDsAXImDYA9QM6kAbAHyJk0APYAOZMGwB4gZ9IA2APkTBoAe4CcSQNgjyf/+2HJvxspi5Zo4r9pYjQ8e3w8+e/duQrM1InZtS6KsV3LpAewB8iZNAD2ADmTBsAeIGfSANgD5EwaAHuAnEkDYA+QM2kA7AFyJg2APUDOpAGwB8iZNAD2ADmTBsAeIGfSANgD5EwaAHuAnEkDYA+QM2kA7AFyJg2APUDOpAGwB8iZNAD2ADmTBsAeIGfSANgD5EwaAHuA7PHM23TuydDNENb6/fFeCJ65C2APkEt63pvoH3v7T1RYdU7R4e7NzE/NDkyZ9gB7gOxYKYpt+yZ63mA41JDmd8q31XuuzQ9CL2jPjAOwB8iWpUG5s9nslt3LY+2Z3QPE8KLc7M9zbb0Yb6OSTBNgD5CVJdu6+C31r+wOAyuDYrvy2vp5OkxHv9I13tEqD3H3BNgDZAPv9iyta2Xwap4alNkqZ5FUu4mV8tQ1q9I10lptzZLxAPYAWeANdGQHCe4baZAyJixsN0yTTWDMHhLOtbmdxsbTmbEB9gCZmH1JVul2HnO8e8uOzAhDpsnGcaaxOddoVKvs2JJpA7AHyATNHne4scy/fr5otsl5TRPFsGmyQ5K0LOsaTWO2q1OWTAuAPUBm1s0etn0zti2SXdsL1rTaHjqyZ5VMI9U17lPzrP/+AHuAzMxKj0h2mP3vFsiIbTLtGTWkfmNHtHndG8m2tYXnuX+MALAHyI5Hg2KgDUu2hhuwJ7Tc9jYVr+DGtUwMgD1AtsxR49JdMmVzzF3TxshL98RkZon37rdQf7qpSSFbeC+APUC20NzR7Q/62HtO8oTmJnaywRsPQ2q7i2bGQ8pQ0x5AVmjyT5OPR9JqeA/Gl5zoMzSltBsPZ9f+HFKGmvYAsoFNI9eQLbqYm1/2oFOea1LIC+17IeWsaQ8gC2Iauca7q1p2pKX1+73n4W1p82wkKlLmmvYAMjHH20OTCb2ZOWoz/HC4uggj2+yDfo/sWlSAPUAmeOfutQV2TZklG9c1TczuvArM/rNrUQH2AJlYLQarvMu1c43mk3ZPflmBN56PMNm1qAB7gMxsUm/ouVbu483sPlO5RnYtKlLWmvYAsqV0TTfWd9hNwJ/KssBRX2X3es0NzzMjI0WtaQ8gW6xr8/w0yw1qjwblbwu2JYc72NYDMy2QEtS0B5At6trarhynj4z5MZf7uV127U8iJahpDyBbxLU5XrhtLW3bR8ab/pz/kVlNW+qrbLNmyLQE2ANki7jGQ9rmnHzRuUTTRzJmC/7QMc9GogLsAbLF9JAbu+LEKk0dl+dovoFNy67FBdgDZItxbVYfXa0NigGNY3eYll2LC7AHyBadjViotdFS+w7TsmtxAfYA2VJxbWF9IIfz8huRXYuKlLemPYBs8Vxbkq8Atl6wc339kqZJdi0qXOTtXXv0jJfZxRa5tcC/jSzerId/DZ5diwoXdUvXVjfMIps9Y5b4O5yiGGyums8+2bWoSEFr2gPIFnHtGR+z/cIbzZbW+ZHIILCAzq5FhUu+pWuzO1u9xi8JyDh/dmnJrkUF2APkTBoAe4CcSQNgD5AzaQDsAXImDYA9QM6kAbAHyJk0APYAOZMGwB4gZ9IA2APkTBoAe4CcSQNgD5AzaQDsAXImDYA9QM6kAbAHyJk0APYAOZMGwB4gZ9IA2APkTBoAe4CcSQNgD5AzaQDsAXImDYA9QM6kAbAHyJk0APYAOZMGwB4gZ9IA2APkTBoAe4CcSQNgD5AzaQDsAXImDYA9DXlBX8nT6y0vB94k2JonlONd/zS4QeWlQfBfOYaIHUL7OyEW1vtFMeg/HSt2R8MeQ0P2XwZZbD9pd7Em8i+63fvS5peXg+9O8zH/Zk6x730didghBO9klBBmZmbd28d2Wr13RU7VtEdDroRMtSTOa7DmdjgzF+aT8h8OQ+TylvauRQhB8zHYOxklhJm5LTnHvP+ozW3IiZr2aMgc8tPl5WXqFl7KP56Psq+Tea2rc603POR5On5de6Ux+6XIIYTvZIQQZPue4tXK7Mzscr9obIEwCnz3o7pm/1Xo7BMKeneEjmAYK0XBtc7lRP3GsJAX6PiWW6ZEDiF8JyOEINsz2VfGrbf6x5iUwdiuyZ6UI3QEw5ilLoJzcoVHTW9Yro+oa9PkMBY3q9U4cgjhOxkhBN6W7p6FR/fewjV+09n9d1Fbp35ilvJ1rtG0alg4dB8jvu2O2kK194kcQvhORgiBOlH38tqWsDstXONXiWty6dlGv/98rdLbPOm96r946h0fULiyFkvcz5hTacSh7vIlv89u2Qa1wrsE9PyyXyuK15ocBk0M3PYQTOQQAncyWgivZVOfe0GRtHGN3+Uva541+yJI2anG8JhHW2bLntFUzJj8UkYHU1rmAINRVm3eb8qgyYqRWwj54tsWOYTAnegRAgxhjj5V6kcLJEtNezTkWsg0oHKn7gJmbM/AI4bFaE2FoI5iZ+4u1/yX87rpMZ01+nSfBhlvp9PIIQTuRP8uwBAop3u/0VQy1LRHQ66FTFMlflkujUzFZm95frlHU7KBeeDAg+2b1dmZhdXXOktrKsQSnUH1r3SNps+U7ss8mlfA/Gm3t7Kw8pyXszZmKofe7AodslLagSHbymVs5BACd0IfhodA5917SkC5tXCNV8f83tX5wYbe8grFbGazXIdVXDOrmKZCUO/OVbV0jaC0a4p8wW3zktclag721TPkw5YszSn2ER5LUbkN7OZVkUMI3wl9GhKCmWUu9Pq7/ZfPWj6gkatq2qMhV0Om+Zd560t5uySZwZ3uqlaXmorsuicbkkLXOEyb+wKVp74Hm69sUT+WpW4DeD340pRN5BACd0LQhyEhvOJWx8tFZsefpoyOnKtpj4bsh/yYprfFhn6w0IrZLDq15/FoKhKEZIdc4+uVO3JwN2bmFdS/bD9Znll8LC/tktrL/dDdbMtxkUMI3AlBySEhUCezRh+2+31pqc7vceATR3VNNux61ZfJ1FZ9xbFEovQGfGR1wd9UeFlj3myNXKPK7eopd2Nu698VmxPPAWXdM9y1vjS2yCEE7oSg5JAQqAXuFjvyhrhH5JvZAnlM6Coju1YyWC9vh5hdftrjVw6amswj76uyKyIaCsWpW/ki16hne6NJhoq5sWUb114uuAVZHwG4h9Q844bgY++EoNSQEMi1YkuvzV1O2RxHh7IY27V+JeCldS4ZwUTFIy/d2FpZlesKz8i0BJBrdMQrTTLUCzWmy3N0zJCQZ2nw0d0zI4dQwbsTOmhICJTRtmtf5Ldd6o8D38uorvED8/p7+B9rvH0enNUJ2eyLiuu5u7maQsf2pSUsL/MXbKt2Fz1Ka8i8FPUd4dqsyRJqG36xNOEXn792dSJqCFXKO6FDhoRAx5ZfziySGKwId0NnjeyaRuTBL/GnUX2VRgNuNO4A81pdec+/4iv8KKuG6f4oMY5rlOWdFXWWCsh78XnMEGqUd0IHDAmB6ka5WQU/hg3kNww66x6uce3UvqYSMnWC69RBFIOgwnnVqLs2Qx2+P9WmCzUfKNAs7s7n/3SS/+LzmCHUKO+E/j4kBDrWe35J8xG3hB0dukp711i091gLmeoaz+0q02WrLMlmlgaeAbzu902l9LKjsds/lzqx5kPjoJUlVLm951lxQ6hR3omXHQiBxgSvrpG1LZZsdJX2rtEqxhVbI2RZSdeaf1Ph00ab+fu9jYHq6R17AS/sFDu+aX8sBKK8k+Eh8Hfg7ir8ITRQDoHOau8aDfZupRoImXv26purm0rFNZpeWW/4eqVPPCY0ioqHR13EBZl7Xj3lT4VQuZMRQqBpjes5H//5OWQjZP/6T+0Bc25OxAHyjTaVkoprfhFS+IHHQf31csZFXY5Xl4cTNwRwJ8NDkK8PbMh0Zv0JzShQDu1do/qj2yybebEc0N+2HTWNAQMOramUVFzboJm1/TPH5j16NXnT+XYmP8f7B4z9G61oIaA7GRoCQc7qgOs9lB4LvtPWrvFtvXm6MLPco46dKhMfQOEUG2tUG+dosiQ9RFPxqLjG+fUfzcyuclfPXUr5NYcZLDirwcvHy7PLT+mKxetqDRhC1BDQnQwNgVikT9ur8zMLnJlTx4HOa++aTJsNbx5RDeIDHvGs0CLBNBWPimvcYQgyGeaYLTY2fnLnKBfQIxE3BHQnQ0Mg+DshZbNWHqMhp2raoyGHQ57TmAe9WZ4ymQNWXTz2OUJTcVRdW9CYTX8T+gWCbLAoDJ6PGXDkEMCdDA+BWNRaMCifkoyFnKxpj4bMG9HXS5xZ7vX7G/Lr68XygJUXtBJb75kuXWgqyizl68U8+2y933/xxPrY/KkM3ckTzstccyyihxC+kxFCIFY2KLO1ZnmMRsMeA5AzaQDsAXImDYA9QM6kAbAHyJk0APYAOZMGwB4gZ9IA2APkTBoAe4CcSQNgD5AzaQDsAXImDYA9QM6kAbAHyJk0APYAOZMGwB4gZ9IA2APkTBoAe4CcSQNgD5AzaQDsAXImDYA9QM6kAbAHyJk0APYAOZMGwB4g/x3+4/887Ab/6z/pHf9tgD1A/lv8h/+u5ZIy/+Pf9G7/PsAeIP89/vW//l8tnDT5f//tX/VOHwJgD5D/Jv/yn/+3llB6/J//8i96lw8DsAfIf5lEB7gHG84cwB4g/3USHOAecDhzAHuA/ACkNcA97HDmAPYA+UFIZ4B76OHMAewB8kORxAD38MOZA9gD5IfjwQe4FIYzB7AHyA/JQw5wiQxnDmAPkB+WhxrgkhnOHMAeID84DzDAJTScOYA9QE6AvzzAJTWcOYA9QE6CvzfApTacOYA9QE6EvzPApTecOYA9QE6HPz7ApTicOYA9QE6JPzrApTmcOYA9QE6LPzXAJTucOYA9QE6NPzHAJTycOYA9QE6QyANc0sOZA9gD5CSJOMAlPpw5gD1ATpQ4A1z6w5kD2APkZLn/ANeF4cwB7AFyytxrgOvGcOYA9gA5bVoPcF0ZzhzAHiCnTpsBrkPDmQPYA+T0GXeA69Rw5gD2ALkTjDHAdWw4cwB7gNwRRhzgOjecOYA9QO4Mwwe4Lg5nDmAPkDvE3QNcN4czB7AHyN0CDnBdHc4cwB4gd43gANfd4cwB7AFy96gPcJ0ezhzAHiB3EX+A6/hw5gD2ALmj6ADX+eHMAewBcmehAW4ChjMHsAfImTQA9gA5kwbAHiBn0gDYA+RMGgB7gJxJA2APkDNpAOwBciYNgD1AzqQBsAfImTQA9gA5kwbAHiBn0gDYA+RMGgB7gJxJA2APkDNpAOwBciYNgD1AzqQBsAfImTQA9gC5LZLdFKPFEA2QKZDbItlNMVoM0QCZArktkt0Uo8UQDZApkNtCmd1OLVFL0gDsAXJbKDMNYQqJWpIGYA+Q20KZaQhTSNSSNAB7gNwWykxDmEKilqQB2APktlBmGkKnOTnRRJ3Lo9+aChC1JA3AHiC3hTLTELrMSXGkqTrfi3fXmmwStSQNwB4gt4Uy0xA6zGlxAFvUl+LoRpMNopakAdgD5LZQZhqCx0UJjDghzoviQpPCpf5fuHlffNBkg6glaQD2ALktlJmG4CHXsBweneA+phWHkm+loIdxeVTFb1o/i+KLJqnCfTzge/7wTT/f3v46KD5rsg4dqcUQDQlN0x5AbgtlpiF4yDU89qP69sNkWnHt6o45A3NhznH8Up24OSze2R7h6kj/Tsa5/M+K4h9N1qDDtBiiIdfWtAeQ20KZaQgeco0K7yP2lO9Mlq5Uf59+3C/O9QPgDtdOiuKHJq/f6p8Fm+XNQXEYvn06SIshGnJlTXsAuS2UmYbgIdd4L12RFrHXB90XamoHe5Sjc42GpbKIAdi1y73iUJM30tL2jz6bFudmKNTYwgsDOkiLIRpyZU17ALktlJmG4CHXsAVzbirwWMPQXVA9kCzHco2P+aTpKuTQmSa/cUaHV5S6kqHTnkCNbc9rnCV0jBZDNPi6Kbh2+2ufP37VT/eFmtr+TTzXflGbst2fNDEzgaQZChkoSYI60WNNVqBjtBiiwddNwjUOuig+6of7Qk3ty208107Lzvua+107y+eZZGHtJA/3QiMbHaLFEA2+bBqu/cMfXcW9HzyBvLwde1yjoSnsGnWFdi7ynfOxXcJ7/uBCoN4iNI2kQ7QYosGXTcO1K/msH27/OT6iQn9/dObX3svjo7c0Dzj+qZ+ZkMZN7chcwLh2cXLykT99PCFEoXHo7Atd4t3xd/1McHMPzSi4J3SrkpuL02NrjvTq7i90iZDndIgWQzT4smm4JpX4rUlfmiUyc+BWsr/KZdI7e1pIM02N2garxjXpfS2i3P50l3jPMwsBufaVctdkhUs+/UA/SFPd16QPHaPFEA2+bhqufeaP5vHspdRhi/ZN16WT5K45L6QR1NTYfhaRa76ybx9OsXh2e3l2fPT1h78g/4SHO38o5j6+jMdBqhZDNPi6Sbhm1koyvaY5NHF4dnEu3dq+KcAPIn69+CZOmbof0kxT44xYA66Zq73/+llO1CtIxTnnwY3YK59W8bQxNLm94oFTp5MMd6SVjtpAqhZDNPi6Cbj2k6ozYZasUm4fZED7wkkZeW64iKRe30hJcwsMaQQ1NZ6n37AUno3c0CHFnoxOcmGdIHJaKoLw2Q2pNBkNdJzmmt6sl9YHoekIqVoM0eALP6RrVczMQArSVOHfnJR6LmOIKRNqKPsyIQhpRj2l/3MhAtekXmhjYpv2TGMzVcfhntRQ5WjOPm/EX//LG64mgVkqqVoM0eArJ+OaDfn3+bEdR3iEk+osK1p9PnGq/VBIk6mcuHCHa5zrns79uD9Vg445+ZZOuZKUeilVp+GGMW3P5c+QEGiTpGoxRIMvnYZr+18CI7mslGWKIq3uoFJIQU2ampiAXbvmtF0p37CFZkjkCemBuQuZG2lj48Mbrhlfqx0iKd5oaCFViyEafO0Hd23/6MPJWe1rmuuL069HR7xo04klD0U09Tjxx/uQZpvaHa5JG3XzC87EzNhPj/albyV+84XtPJ7SKjukM62Zxj2kXYx7kKrFEA2++EO6FmpfFP+3clJgXZNnJ8z+J2dFQHNN7Q7X5AGw80GWfLbOXNuE3IB+oAZfm0OGTJMLVr7hNpCqxRANvnpyrpUrYMG4dvtTFgTCW1teTY0XC6bosGsyM3V9nvR1jdKWLlLbMPlaXa/Rsptqistb4QrjTU4spGoxRIMvn5prMjUs9j+cnFxcsCvq2u31Wemm/bq/rvFQtyff2R3JQ8J3R0fmQTx2TRaF7vmIRZZ4+rSLfK38KkTycmtzB7X8PU360LFaDNHg66fmmoxWp2a15GYjhssT8YIoB5CKJg2sinlK5rsmE/9qD+k/7hTENW1NdK4+ahMuZMxr9oV0SujBFx2sxRANvrfEXJPBypZpzTXi9zfWqt8OlNpIrskV3GqMT/VNMcjI5U39S5Ouuf3XxzSG7A89xaSjtRiiwfeWmGvSEuykoOkazVW4U6z1RVb7bXpHBveQ8vWC7fP8L8x+fftgL8xnu2fB9KGcREqP6n1TYOEnNaGug47WYogG30Firsk8QNMyR1fXLj7Z5iG+SjsIaZbAbERX5PKg066h5Q8yTP7grlmNlbH1vUlL3+eqjrcqr3LhneBDh2sxRINvITHX5Em60c0zfRksvlJJ299l8JjDfVpIK6m6Jl8E2YeG3sB2I01S+j/x462McOYnPW7JTKs3+yhFHA/+GovaYGCNPS2uSeF95HK5NKtoMUPmfYfSPn5xt8n9XkgrqbomrXbfL3ppVubBlJ4og+MRTScvRfV6ZqoT2rzEcJrelmgI1Dpt861Cx2sxRIPvITHXTJEefPzMrYALUr53lDlAsffl5MQ8S2I7QlpJ1TV52FEcfPp0xPMIWWcXh58+yDd5b9VMXbQfmK/39rzVwM1ba4k0wgp6CdTUpsQ109gMJ9KcRL0UiyymgEKao+qaaZiMzP64Q7W8dzchY5yyryOcge7JNDbkGs0z67MmhQ7RYoiGXFfTHkBuC2WmIXjINUKu3f4wlZ0LTjoko/4qn3K9s1O4kGapuXZtDzXSP9IdMv7DqgsZ5ZgPtd7uozY25Br9vbFSN9AhWgzRkOtq2gPIbaHMNASPO/41ze+Tz0dHH8+p4/rNB6l6++v0A83oj0/8tVJIM9zwqXYiz/w44QWB/Wrh5vsxfzqrlfWPk49HR5/K730sNHBKW7rkXCvIJah26QS1QdSSNAB7gNwWykxD6C5kW2gNbfi5h/8YtSQNwB4gt4Uy0xA6zNW+199WoclK6IclhqglaQD2ALktlJmG0GUu99GPbE/Dv+EyRC1JA7AHyG2hzDSETnPZfGKsVOabNaKWpAHYA+S2UGYawhQStSQNwB4gt4Uy0xCmkKglaQD2ALktlJmGMIVELUkDsAfIbaHMNIQpJGpJGoA9QG4LZaYhTCFRS9IA7AFyWygzDWEKiVqSBmAPkNtCmWkIU0jUkjQAe4DcFspMQ5hCopakAdgD5LZIdlOMFkM0QKZAbotkN8VoMUQDZArktkh2U4wWQzRApkDuKJMUiwDsAXJHmaRYBGAPkDvKJMUiAHuA3FEmKRYB2APkjjJJsQjAHiB3lEmKRQD2ALmjTFIsArAHyB1lkmIRgD1A7iiTFIsA7AFyR5mkWARgD5A7yiTFIgB7gNxRJikWAdgD5I4ySbEIwB4gd5RJikUA9gC5o0xSLAKwB8gdZZJiEYA9QO4okxSLAOwBckeZpFgEYA+QO8okxSIAe4DcUSYpFgHYA+SOMkmxCMAeIHeUSYpFAPYAuaNMUiwCsAfIHWWSYhGAPUDuKJMUiwDsAXJHmaRYBGAPkDvKJMUiAHuA3FEmKRYB2APkjjJJsQjAHiB3lEmKRQD2ALmjTFIsArAHyB1lkmIRgD1A7iiTFIsA7AFyR5mkWARgD5A7yiTFIgB7gNxRJikWAdgD5I4ySbEIwB4gd5RJikUA9gC5o0xSLAKwB8gdZZJiEYA9QG6LZDfFaDFEA2QK5LZIdlOMFkM0QKZAbotkN8VoMUQDZArktlBm+tq9KSRqSRqAPUBuC2WmIUwhUUvSAOwBclsoMw1hColakgZgD5DbQplpCJ3mJryDFeFvPVUnakkagD1AbgtlpiF0mZsPlb3OPb7vN3b+KolakgZgD5DbQplpCB3m5kNw617mci+w6bklakkagD1AbgtlpiF0mI/Fe9hDnhdvg7s2MlFL0gDsAXJbKDMNwUO3wCXOL3BNfQB+XlxcNHeb/OQ2eWau7SaHyie3pWyDqCVpAPYAuS2UmYbgIdco+RjJuQvNzwLbQJjrr2bD0YPTqgvnbgN0OuZEd/k9dpnfvAtvcU7QgVoM0ZCra9oDyG2hzDQED7mGz0ewnep4YNeuzodXjJ+yr7pw6Pv9e99tke42qyX2Tmyn+QNuLEqHaTFEQ66taQ8gt4Uy0xA85BoVYCczDsC1S94a+67N7YRfpSFFse9t43us+9cTl7LztsXtTPmucrwHHaTFEA25sqY9gNwWykxD8JBrfJGB7YvuZ+yq8z3grcoPeLNeRYtStsIe5tqNtLSjs4svshF3OWX8Xu6G/Vt60LdfT04ksWfNpMYW3qaSDtJiiAZf+CFds72Qbnxd3/O6BWxPoPhGck1255aTeaf1g3KHV3LzhyZlf/Qj7hVoKUC4Ndy7ogiu2ugYLYZo8HVTcE2rOVoQjcE9XLvhFvbOjFTvj70duH+SrEk2x25o/pvzfCtJgiwPrsLpGC2GaPB1k3DN1HP08GEM7uEaN7DgMV8Ktx227Hh/rB+kj7TzEfrLXmhgpkO0GKLBl03DNarP1CnpB+Z3YNF0+yuwtKtqp5TNZ017BF37WVlzsTnBguc2aLfK/ofb2ql+eM+ZuhDIw5DldIgWQzT4smm4dskf9/TD9Zmumo49Q67PZI5QHJyVJdvUeNyp7xN/fnQkHfAhT09Uu/rI5V8cfC5nfiyEWju1wb3yscjNxane1I3MJt1fPoXPpkO0GKLBl03DtW/8UQeJc29ybXuj23/KWbl76hfQQq7JDMJipFN3iX07BbrhT/VTGWqD1usKsshw4xpH4JnroGO0GKLB103DNZmQmam/9GYOLcdLfym1Z6YKIY0dOrs9+3S4d/S1Mu+ziKJLDYP2a1ecPru9+Xb09vDTWXlnvFgLTuo/8wnlBIpN9M6ykKrFEA2+bhKumYKV8vstzeDT5e2vM3ZFJ2wyd/v8z+0VdUTUsUmlDmmcPJfPxLGp+40eUhr2wdd/vkvB6wLaTEZ+mr652LcjmQxfoSZo1vNlB8t9fHmSg1QthmjIhTXtAeS2UGYagodc4/uFcGqK6lAKWQw0xSSl+41T15wy9fojJ/nxUUgT17TgiXe2WlRmI9c8GJqn9KJ7Tfyb6zn33NSCsrPzD49fMqJ6Ex+eXtrW7UGqFkM0+MIP6VoFHZr4+a2OFqUvMsU0feBVsffxGxd5SBPXqMiPjsw0xT5uqbjGk0U90XRzcmGpImTa3pHMU4o924wo7Rx0/JKqUfnyhj5LDatCqhZDNPjKqbj21s4xbq++2VLiopeJmUwx9WGFfQQR0kyrk+dYptlophXXuOPd1/IW62XKo6PfCc1Gr8U3HbK4DTVcM6ZVv1UjIdCTkqrFEA2+dBquHQU6F7OOlZFIWt3eSTmKECFN5hn6fEMW7trYfNfkmYabm3LFOOSEcc20lmt2XBsbzy3rrhlba1+FBo4jSNViiAZf+yFde8/zg48np43F84+TD7KGJcysW9oQfTjz1t4h7fzk6J2WnTyh0iWg7xo/YC5bBV9GDhLX7IpLOlFdE1DTrLWhoGlcibTb9SFViyEafPGHdK0at+Xq2M0JCOPalRmniMNTe1ZI8xFXTYPxXZM26L4Nk0WA9KicsJPA7/xB5yA0/yzn90zQNOlJA49zSNViiAZfPTnXyhWwoCvca/O1gPBVB6WQ5iENxvjguyYTENeXyfSFh0U5xLom03r1inytrtfkqpVvTRkeIQPPw0jVYogGXz4116SaF0cnPy6uy3GNufzsVtU6coU1h/R5xh7fta9eWi3g+5CO08rylFi9IpfdPTDi+ruGQbTe29ekDx2rxRANvn5irsliyv7AsOIacfFVlsuVBVRIM4g9JiffNekKm+OaTFJsxylTS52fUjWyM05GOtjDZqsCD77oYC2GaPANJOaaPKKwE8q6a8TVMR9QPv5jQhohnZ8pXt816f3c8pgvIXNIWRDYrlAans5GeEJZPvS44v67PqYxNNgFlmtT4hp/1eIepHO7a1Rg6dNq3aHTrs+P3U/g2BD98sd3TXo/+5Mq+WCWB2y9bVRyF3YRSJm777Xl61v3uwMPmkJO3/drDhk1NC1lbVz7dfbOPueQLooLKKDJ/7WrlFarU3nJyXahMgXU6Z7YYzyRY3TuLodYE6hLdd9ly/FuUPSgftTeTAU6XIshGnwLibkm5W5quXmmL92XtCXtpnhqyKUY0szXdJKteXyhLoiDttXKB7PMloPscppbtvmhmHSQrhPlP6jJ8mg79DUa+xz82Qsdr8UQDb65xFyTUeeQuqAbeeSvw5V4aZ7DX3DBcYmGNPP98sG3q0vzxaodp4yb59r/SUv6RF6ZJ/y2+5MM353/upDJ50HZ35XtSBYT8t2BRTtLqglva722gY7XYogG30NirplyL/Zl/OD/mOm0Ud/pdy4HcmJIq/yksSx5mZlSXm+ldxOTqZjN/45caVe+dvNbDv3BuFM5QtDGTg1fUzXoEC2GaMh1Ne0B5LZQZhqCh1wj5Fr5XefePzJ3F/XaL68904OGtMpXpe/LWYO0I0bK1vsSvPhUtqlrUw+Yvco64nJPGxtyjdqy96WNDx2ixRANua6mPYDcFspMQ/CQa4Rcu/2lZXd0ZZZWRr3RL+GoQL/Y00La7fVX04RqBW+fuJhS/i1rBeKg8ujw5qva+b72bIp6RqkVwLWb936HWoEO0WKIhlxX0x5AbgtlpiGMyMX3kxP/NwDKz9OTk5Nv1R9WhbTfF2cnJ+d23m75fcG/c/5hj/z9jT81pvA3dOmTfxrXvvlw5w/avxR74f5xmlxLELItOLEXfthfrQSIWpIGYA+Q20KZaQgd5vpd+T1BDZoBBb8dFKKWpAHYA+S2UGYaQpe5fof+idp5cNmtRC1JA7AHyG2hzDSETnMNB7bgpEqJWpIGYA+Q20KZaQhTSNSSNAB7gNwWykxDmEKilqQB2APktlBmGsIUErUkDcAeILeFMtMQppCoJWkA9gC5LZSZhjCFRC1JA7AHyG2hzDSEKSRqSRqAPUBuC2WmIUwhUUvSAOwBclskuylGiyEaIFMgt0Wym2K0GKIBMgVyWyS7KUaLIRogUyBn0gDYA+RMGgB7gJxJA2APkDNpAOwBciYNgD1AzqQBsAfImTQA9oicSRq1ykP/kEkYtcpjoH/JpIta5dHXv2SSZVut8lh8o3/LJMrOilqVyWQymUwmk8mMyMzM/wfb9tR3e0UcnwAAAABJRU5ErkJggg==;" vertex="1" parent="1">
          <mxGeometry x="280" y="-880" width="337" height="388.67" as="geometry" />
        </mxCell>
        <mxCell id="LmEIZnUeqxn2UF4arfpl-4" value="" style="shape=flexArrow;endArrow=classic;html=1;rounded=0;strokeWidth=1;width=28.18181818181818;endSize=23.75454545454545;endWidth=38.925619834710744;" edge="1" parent="1">
          <mxGeometry width="50" height="50" relative="1" as="geometry">
            <mxPoint x="630" y="-660" as="sourcePoint" />
            <mxPoint x="823" y="-660" as="targetPoint" />
          </mxGeometry>
        </mxCell>
        <mxCell id="LmEIZnUeqxn2UF4arfpl-6" value="&lt;font style=&quot;font-size: 22px;&quot;&gt;背番号入れ替え&lt;/font&gt;" style="text;html=1;strokeColor=none;fillColor=none;align=center;verticalAlign=middle;whiteSpace=wrap;rounded=0;fontSize=22;" vertex="1" parent="1">
          <mxGeometry x="640" y="-750" width="160" height="30" as="geometry" />
        </mxCell>
      </root>
    </mxGraphModel>
  </diagram>
</mxfile>
